<?xml version="1.0" encoding="iso-8859-1"?>
<!-- Generator: Adobe Illustrator 25.4.1, SVG Export Plug-In . SVG Version: 6.00 Build 0)  -->
<svg version="1.1" id="Calque_1" xmlns="http://www.w3.org/2000/svg" xmlns:xlink="http://www.w3.org/1999/xlink" x="0px" y="0px"
	 viewBox="0 0 1000 1000" style="enable-background:new 0 0 1000 1000;" xml:space="preserve">
<g>
	<g>
		<g>
			<path d="M3545.114-492.358l-34.619-7.31c-20.321-4.368-30.481-13.241-30.481-26.665c0-8.781,3.448-15.677,10.39-20.78
				c6.942-5.057,16.275-7.586,28.044-7.586c12.229,0,22.252,2.85,29.975,8.643c7.724,5.747,12.735,14.206,15.079,25.286h35.998
				c-1.839-19.631-9.976-35.354-24.412-47.124s-32.734-17.654-54.893-17.654c-22.39,0-40.55,5.701-54.388,17.148
				s-20.781,26.389-20.781,44.871c0,29.056,18.712,47.537,56.135,55.399l34.251,7.632c21.01,4.368,31.538,14.16,31.538,29.424
				c0,9.701-3.632,17.194-10.896,22.528c-7.31,5.287-17.608,7.953-31.033,7.953c-14.758,0-26.527-3.172-35.308-9.517
				c-8.781-6.344-13.976-15.539-15.585-27.539h-36.734c1.425,20.781,9.885,37.331,25.47,49.698
				c15.585,12.367,35.86,18.528,60.778,18.528c24.274,0,43.308-5.839,57.146-17.516c13.885-11.631,20.781-27.401,20.781-47.262
				C3601.571-464.911,3582.767-484.312,3545.114-492.358z"/>
		</g>
		<g>
			<path d="M3696.461-403.351v-148.267h49.193v-29.791h-49.514v-62.341h-0.184l-36.55,10.712v51.629h-35.676v29.791h35.354v144.084
				c0,11.31,2.942,19.815,8.827,25.47c5.885,5.655,14.252,8.459,25.102,8.459h57.514v-29.746H3696.461z"/>
		</g>
		<g>
			<path d="M3964.217-487.531c0-20.091-3.954-37.469-11.815-52.135c-7.816-14.666-18.528-25.976-31.998-33.929
				c-13.517-7.953-28.918-11.953-46.25-11.953c-18.482,0-34.94,4.413-49.376,13.149c-14.39,8.781-25.746,21.194-33.929,37.239
				c-8.184,16.045-12.275,35.032-12.275,56.962c0,22.206,4.183,41.423,12.643,57.698c8.413,16.275,19.999,28.872,34.803,37.745
				c14.758,8.873,31.492,13.332,50.204,13.332c21.93,0,40.871-5.931,56.824-17.838c15.907-11.907,26.067-28.458,30.481-49.698
				h-38.113c-2.989,10.85-8.919,19.401-17.654,25.608c-8.781,6.253-19.401,9.379-31.86,9.379c-17.333,0-31.584-6.207-42.802-18.528
				c-11.172-12.367-17.378-29.148-18.528-50.388h149.647V-487.531z M3816.317-499.3c2.989-17.102,9.609-30.343,19.907-39.814
				c10.252-9.471,22.803-14.206,37.561-14.206c14.804,0,27.079,4.735,36.917,14.206c9.793,9.471,15.493,22.711,17.148,39.814
				H3816.317z"/>
		</g>
		<g>
			<path d="M4017.363-653.82l-0.874,0.276v279.938h37.423v-290.926L4017.363-653.82z"/>
		</g>
		<g>
			<path d="M4119.839-653.82l-0.827,0.23v279.984h37.377v-290.926L4119.839-653.82z"/>
		</g>
		<g>
			<path d="M4353.297-564.767c-14.436-13.838-34.435-20.78-60.088-20.78c-22.62,0-41.561,5.839-56.778,17.47
				c-15.264,11.677-24.596,27.447-28.09,47.307h38.113c2.529-10.39,7.815-18.436,15.769-24.091s18.068-8.459,30.297-8.459
				c14.758,0,26.251,4.138,34.48,12.459c8.184,8.321,12.275,20.183,12.275,35.676v10.39h-60.594
				c-23.585,0-41.745,5.471-54.572,16.459c-12.827,10.942-19.217,26.251-19.217,45.883c0,18.482,6.391,33.515,19.217,45.193
				c12.827,11.678,29.516,17.47,50.066,17.47c14.298,0,27.217-3.494,38.756-10.528c11.585-7.08,19.999-16.827,25.286-29.286h1.425
				v35.998h35.308v-132.636C4374.951-531.39,4367.733-550.929,4353.297-564.767z M4339.275-458.107
				c0,10.896-2.529,20.642-7.632,29.286c-5.057,8.643-11.954,15.447-20.596,20.413c-8.644,4.965-18.436,7.448-29.286,7.448
				c-12.689,0-22.849-2.988-30.435-9.011c-7.632-5.977-11.448-14.068-11.448-24.229c0-10.16,3.494-18.068,10.574-23.723
				c7.034-5.655,17.24-8.459,30.619-8.459h58.204V-458.107z"/>
		</g>
		<g>
			<path d="M4538.758-583.111c-15.217,0-28.182,3.908-38.802,11.769c-10.62,7.862-18.114,18.344-22.481,31.493h-1.379v-41.561
				h-35.676v207.804h37.377v-108.362c0-20.781,5.103-37.285,15.264-49.56c10.16-12.229,24.688-18.344,43.629-18.344h17.333v-33.239
				H4538.758z"/>
		</g>
	</g>
	<g>
		<g>
			<polygon points="3310.149,-405.667 3186.042,-442.007 2959.013,-302.745 3242.437,-586.169 3098.276,-529.774 3061.844,-653.972 
				3186.042,-617.54 3310.149,-653.881 3273.809,-529.774 			"/>
			<polygon points="3076.293,-493.937 3150.062,-524.346 3007.271,-381.556 			"/>
		</g>
		<g>
			<polygon points="2978.188,-528.636 2990.93,-505.339 3014.228,-492.597 2990.93,-479.855 2978.188,-456.557 2965.447,-479.855 
				2942.149,-492.597 2965.447,-505.339 			"/>
		</g>
		<g>
			<polygon points="3211.809,-363.295 3194.332,-353.737 3184.773,-336.26 3175.215,-353.737 3157.738,-363.295 3175.215,-372.854 
				3184.773,-390.331 3194.332,-372.854 			"/>
		</g>
	</g>
</g>
<g>
	<g>
		<g>
			<path style="fill:#FFFFFF;" d="M1522.986-492.358l-34.619-7.31c-20.321-4.368-30.481-13.241-30.481-26.665
				c0-8.781,3.448-15.677,10.39-20.78c6.942-5.057,16.275-7.586,28.044-7.586c12.229,0,22.252,2.85,29.975,8.643
				c7.724,5.747,12.735,14.206,15.079,25.286h35.998c-1.839-19.631-9.976-35.354-24.412-47.124s-32.734-17.654-54.893-17.654
				c-22.39,0-40.549,5.701-54.388,17.148c-13.838,11.448-20.781,26.389-20.781,44.871c0,29.056,18.712,47.537,56.135,55.399
				l34.251,7.632c21.01,4.368,31.538,14.16,31.538,29.424c0,9.701-3.632,17.194-10.896,22.528
				c-7.31,5.287-17.608,7.953-31.033,7.953c-14.758,0-26.527-3.172-35.308-9.517c-8.781-6.344-13.976-15.539-15.585-27.539h-36.733
				c1.425,20.781,9.885,37.331,25.47,49.698c15.585,12.367,35.86,18.528,60.778,18.528c24.274,0,43.308-5.839,57.146-17.516
				c13.884-11.631,20.781-27.401,20.781-47.262C1579.443-464.911,1560.639-484.312,1522.986-492.358z"/>
		</g>
		<g>
			<path style="fill:#FFFFFF;" d="M1674.334-403.351v-148.267h49.193v-29.791h-49.514v-62.341h-0.184l-36.55,10.712v51.629h-35.676
				v29.791h35.354v144.084c0,11.31,2.942,19.815,8.827,25.47c5.885,5.655,14.252,8.459,25.102,8.459h57.514v-29.746H1674.334z"/>
		</g>
		<g>
			<path style="fill:#FFFFFF;" d="M1942.089-487.531c0-20.091-3.954-37.469-11.816-52.135
				c-7.816-14.666-18.528-25.976-31.998-33.929c-13.516-7.953-28.918-11.953-46.25-11.953c-18.482,0-34.94,4.413-49.376,13.149
				c-14.39,8.781-25.746,21.194-33.929,37.239c-8.184,16.045-12.275,35.032-12.275,56.962c0,22.206,4.183,41.423,12.643,57.698
				c8.413,16.275,19.999,28.872,34.803,37.745c14.758,8.873,31.492,13.332,50.204,13.332c21.93,0,40.871-5.931,56.824-17.838
				c15.907-11.907,26.067-28.458,30.481-49.698h-38.113c-2.988,10.85-8.919,19.401-17.654,25.608
				c-8.781,6.253-19.401,9.379-31.86,9.379c-17.332,0-31.584-6.207-42.802-18.528c-11.172-12.367-17.379-29.148-18.528-50.388
				h149.647V-487.531z M1794.189-499.3c2.988-17.102,9.609-30.343,19.907-39.814c10.252-9.471,22.803-14.206,37.561-14.206
				c14.804,0,27.079,4.735,36.918,14.206c9.793,9.471,15.493,22.711,17.148,39.814H1794.189z"/>
		</g>
		<g>
			<path style="fill:#FFFFFF;" d="M1995.235-653.82l-0.874,0.276v279.938h37.423v-290.926L1995.235-653.82z"/>
		</g>
		<g>
			<path style="fill:#FFFFFF;" d="M2097.712-653.82l-0.827,0.23v279.984h37.377v-290.926L2097.712-653.82z"/>
		</g>
		<g>
			<path style="fill:#FFFFFF;" d="M2331.17-564.767c-14.436-13.838-34.435-20.78-60.089-20.78c-22.619,0-41.561,5.839-56.778,17.47
				c-15.264,11.677-24.596,27.447-28.09,47.307h38.113c2.529-10.39,7.816-18.436,15.769-24.091s18.068-8.459,30.297-8.459
				c14.758,0,26.251,4.138,34.481,12.459c8.183,8.321,12.275,20.183,12.275,35.676v10.39h-60.594
				c-23.585,0-41.745,5.471-54.572,16.459c-12.827,10.942-19.217,26.251-19.217,45.883c0,18.482,6.391,33.515,19.217,45.193
				c12.827,11.678,29.516,17.47,50.066,17.47c14.298,0,27.217-3.494,38.756-10.528c11.586-7.08,19.999-16.827,25.286-29.286h1.425
				v35.998h35.308v-132.636C2352.824-531.39,2345.606-550.929,2331.17-564.767z M2317.147-458.107
				c0,10.896-2.529,20.642-7.632,29.286c-5.057,8.643-11.953,15.447-20.596,20.413c-8.643,4.965-18.436,7.448-29.286,7.448
				c-12.689,0-22.849-2.988-30.435-9.011c-7.632-5.977-11.448-14.068-11.448-24.229c0-10.16,3.494-18.068,10.574-23.723
				c7.034-5.655,17.24-8.459,30.619-8.459h58.203V-458.107z"/>
		</g>
		<g>
			<path style="fill:#FFFFFF;" d="M2516.63-583.111c-15.217,0-28.182,3.908-38.802,11.769c-10.62,7.862-18.114,18.344-22.481,31.493
				h-1.379v-41.561h-35.676v207.804h37.377v-108.362c0-20.781,5.103-37.285,15.264-49.56c10.16-12.229,24.688-18.344,43.629-18.344
				h17.332v-33.239H2516.63z"/>
		</g>
	</g>
	<g>
		<g>
			<polygon style="fill:#FFFFFF;" points="1288.021,-405.667 1163.915,-442.007 936.885,-302.745 1220.31,-586.169 
				1076.148,-529.774 1039.716,-653.972 1163.915,-617.54 1288.021,-653.881 1251.682,-529.774 			"/>
			<polygon style="fill:#FFFFFF;" points="1054.165,-493.937 1127.934,-524.346 985.144,-381.556 			"/>
		</g>
		<g>
			<polygon style="fill:#FFFFFF;" points="956.061,-528.636 968.803,-505.339 992.1,-492.597 968.803,-479.855 956.061,-456.557 
				943.319,-479.855 920.021,-492.597 943.319,-505.339 			"/>
		</g>
		<g>
			<polygon style="fill:#FFFFFF;" points="1189.681,-363.295 1172.204,-353.737 1162.646,-336.26 1153.088,-353.737 
				1135.611,-363.295 1153.088,-372.854 1162.646,-390.331 1172.204,-372.854 			"/>
		</g>
	</g>
</g>
<g>
	<g>
		<g>
			<path style="fill:#FFFFFF;" d="M-572.673-492.358l-34.619-7.31c-20.321-4.368-30.481-13.241-30.481-26.665
				c0-8.781,3.448-15.677,10.39-20.78c6.942-5.057,16.275-7.586,28.044-7.586c12.229,0,22.252,2.85,29.975,8.643
				c7.724,5.747,12.735,14.206,15.079,25.286h35.998c-1.839-19.631-9.976-35.354-24.412-47.124
				c-14.436-11.769-32.734-17.654-54.893-17.654c-22.389,0-40.549,5.701-54.388,17.148s-20.781,26.389-20.781,44.871
				c0,29.056,18.712,47.537,56.135,55.399l34.251,7.632c21.01,4.368,31.538,14.16,31.538,29.424c0,9.701-3.632,17.194-10.896,22.528
				c-7.31,5.287-17.608,7.953-31.033,7.953c-14.758,0-26.527-3.172-35.308-9.517c-8.781-6.344-13.976-15.539-15.585-27.539h-36.733
				c1.425,20.781,9.885,37.331,25.47,49.698c15.585,12.367,35.86,18.528,60.778,18.528c24.274,0,43.308-5.839,57.146-17.516
				c13.884-11.631,20.781-27.401,20.781-47.262C-516.217-464.911-535.02-484.312-572.673-492.358z"/>
		</g>
		<g>
			<path style="fill:#FFFFFF;" d="M-421.326-403.351v-148.267h49.193v-29.791h-49.514v-62.341h-0.184l-36.55,10.712v51.629h-35.676
				v29.791h35.354v144.084c0,11.31,2.942,19.815,8.827,25.47c5.885,5.655,14.252,8.459,25.102,8.459h57.514v-29.746H-421.326z"/>
		</g>
		<g>
			<path style="fill:#FFFFFF;" d="M-153.571-487.531c0-20.091-3.954-37.469-11.815-52.135
				c-7.816-14.666-18.528-25.976-31.998-33.929c-13.516-7.953-28.918-11.953-46.25-11.953c-18.482,0-34.94,4.413-49.376,13.149
				c-14.39,8.781-25.746,21.194-33.929,37.239c-8.184,16.045-12.275,35.032-12.275,56.962c0,22.206,4.184,41.423,12.643,57.698
				c8.413,16.275,19.999,28.872,34.803,37.745c14.758,8.873,31.492,13.332,50.204,13.332c21.93,0,40.871-5.931,56.824-17.838
				c15.907-11.907,26.067-28.458,30.481-49.698h-38.113c-2.988,10.85-8.919,19.401-17.654,25.608
				c-8.781,6.253-19.401,9.379-31.86,9.379c-17.332,0-31.584-6.207-42.802-18.528c-11.172-12.367-17.378-29.148-18.528-50.388
				h149.647V-487.531z M-301.471-499.3c2.988-17.102,9.609-30.343,19.907-39.814c10.252-9.471,22.803-14.206,37.561-14.206
				c14.804,0,27.079,4.735,36.918,14.206c9.793,9.471,15.493,22.711,17.148,39.814H-301.471z"/>
		</g>
		<g>
			<path style="fill:#FFFFFF;" d="M-100.424-653.82l-0.874,0.276v279.938h37.423v-290.926L-100.424-653.82z"/>
		</g>
		<g>
			<path style="fill:#FFFFFF;" d="M2.052-653.82l-0.828,0.23v279.984h37.377v-290.926L2.052-653.82z"/>
		</g>
		<g>
			<path style="fill:#FFFFFF;" d="M235.51-564.767c-14.436-13.838-34.435-20.78-60.089-20.78c-22.62,0-41.561,5.839-56.779,17.47
				c-15.264,11.677-24.596,27.447-28.09,47.307h38.113c2.529-10.39,7.816-18.436,15.769-24.091
				c7.954-5.655,18.068-8.459,30.297-8.459c14.758,0,26.251,4.138,34.481,12.459c8.184,8.321,12.275,20.183,12.275,35.676v10.39
				h-60.594c-23.585,0-41.745,5.471-54.572,16.459c-12.827,10.942-19.217,26.251-19.217,45.883c0,18.482,6.391,33.515,19.217,45.193
				c12.827,11.678,29.515,17.47,50.066,17.47c14.298,0,27.217-3.494,38.756-10.528c11.586-7.08,19.999-16.827,25.286-29.286h1.425
				v35.998h35.308v-132.636C257.164-531.39,249.946-550.929,235.51-564.767z M221.488-458.107c0,10.896-2.529,20.642-7.632,29.286
				c-5.057,8.643-11.954,15.447-20.596,20.413c-8.643,4.965-18.436,7.448-29.286,7.448c-12.689,0-22.849-2.988-30.435-9.011
				c-7.632-5.977-11.448-14.068-11.448-24.229c0-10.16,3.494-18.068,10.574-23.723c7.034-5.655,17.24-8.459,30.619-8.459h58.203
				V-458.107z"/>
		</g>
		<g>
			<path style="fill:#FFFFFF;" d="M420.971-583.111c-15.217,0-28.182,3.908-38.802,11.769c-10.62,7.862-18.114,18.344-22.482,31.493
				h-1.379v-41.561h-35.676v207.804h37.377v-108.362c0-20.781,5.103-37.285,15.264-49.56c10.16-12.229,24.688-18.344,43.629-18.344
				h17.332v-33.239H420.971z"/>
		</g>
	</g>
	<g>
		<g>
			<linearGradient id="SVGID_1_" gradientUnits="userSpaceOnUse" x1="-1072.1627" y1="-372.9846" x2="-882.0049" y2="-585.4448">
				<stop  offset="0" style="stop-color:#1170F3"/>
				<stop  offset="1" style="stop-color:#B95FDE"/>
			</linearGradient>
			<polygon style="fill:url(#SVGID_1_);" points="-807.638,-405.667 -931.745,-442.007 -1158.775,-302.745 -875.35,-586.169 
				-1019.511,-529.774 -1055.944,-653.972 -931.745,-617.54 -807.638,-653.881 -843.978,-529.774 			"/>
			
				<linearGradient id="SVGID_00000134226967150460153410000012061703712517802935_" gradientUnits="userSpaceOnUse" x1="-1102.3177" y1="-399.9741" x2="-912.1599" y2="-612.4344">
				<stop  offset="0" style="stop-color:#1170F3"/>
				<stop  offset="1" style="stop-color:#B95FDE"/>
			</linearGradient>
			<polygon style="fill:url(#SVGID_00000134226967150460153410000012061703712517802935_);" points="-1041.494,-493.937 
				-967.726,-524.346 -1110.516,-381.556 			"/>
		</g>
		<g>
			<polygon style="fill:#1170F3;" points="-1139.599,-528.636 -1126.857,-505.339 -1103.559,-492.597 -1126.857,-479.855 
				-1139.599,-456.557 -1152.341,-479.855 -1175.638,-492.597 -1152.341,-505.339 			"/>
		</g>
		<g>
			<polygon style="fill:#1170F3;" points="-905.978,-363.295 -923.455,-353.737 -933.014,-336.26 -942.572,-353.737 
				-960.049,-363.295 -942.572,-372.854 -933.014,-390.331 -923.455,-372.854 			"/>
		</g>
	</g>
</g>
<g>
	<g>
		<g>
			<path style="fill:#1170F3;" d="M-2622.375-492.358l-34.618-7.31c-20.321-4.368-30.481-13.241-30.481-26.665
				c0-8.781,3.448-15.677,10.39-20.78c6.942-5.057,16.275-7.586,28.044-7.586c12.229,0,22.252,2.85,29.975,8.643
				c7.724,5.747,12.735,14.206,15.08,25.286h35.998c-1.839-19.631-9.977-35.354-24.413-47.124
				c-14.436-11.769-32.734-17.654-54.893-17.654c-22.389,0-40.549,5.701-54.388,17.148s-20.781,26.389-20.781,44.871
				c0,29.056,18.712,47.537,56.135,55.399l34.251,7.632c21.01,4.368,31.538,14.16,31.538,29.424c0,9.701-3.632,17.194-10.896,22.528
				c-7.31,5.287-17.608,7.953-31.032,7.953c-14.758,0-26.527-3.172-35.308-9.517c-8.781-6.344-13.976-15.539-15.585-27.539h-36.733
				c1.425,20.781,9.885,37.331,25.47,49.698s35.86,18.528,60.778,18.528c24.274,0,43.308-5.839,57.146-17.516
				c13.884-11.631,20.781-27.401,20.781-47.262C-2565.919-464.911-2584.722-484.312-2622.375-492.358z"/>
		</g>
		<g>
			<path style="fill:#1170F3;" d="M-2471.028-403.351v-148.267h49.193v-29.791h-49.514v-62.341h-0.184l-36.55,10.712v51.629h-35.676
				v29.791h35.354v144.084c0,11.31,2.942,19.815,8.827,25.47c5.885,5.655,14.252,8.459,25.102,8.459h57.514v-29.746H-2471.028z"/>
		</g>
		<g>
			<path style="fill:#1170F3;" d="M-2203.273-487.531c0-20.091-3.954-37.469-11.815-52.135
				c-7.816-14.666-18.528-25.976-31.998-33.929c-13.516-7.953-28.918-11.953-46.25-11.953c-18.482,0-34.94,4.413-49.376,13.149
				c-14.39,8.781-25.746,21.194-33.929,37.239c-8.184,16.045-12.275,35.032-12.275,56.962c0,22.206,4.184,41.423,12.643,57.698
				c8.413,16.275,19.999,28.872,34.802,37.745c14.758,8.873,31.492,13.332,50.204,13.332c21.93,0,40.871-5.931,56.824-17.838
				c15.907-11.907,26.067-28.458,30.481-49.698h-38.113c-2.989,10.85-8.919,19.401-17.654,25.608
				c-8.781,6.253-19.401,9.379-31.86,9.379c-17.332,0-31.584-6.207-42.802-18.528c-11.172-12.367-17.378-29.148-18.528-50.388
				h149.647V-487.531z M-2351.173-499.3c2.989-17.102,9.609-30.343,19.907-39.814c10.252-9.471,22.803-14.206,37.561-14.206
				c14.804,0,27.079,4.735,36.917,14.206c9.792,9.471,15.493,22.711,17.148,39.814H-2351.173z"/>
		</g>
		<g>
			<path style="fill:#1170F3;" d="M-2150.126-653.82l-0.874,0.276v279.938h37.423v-290.926L-2150.126-653.82z"/>
		</g>
		<g>
			<path style="fill:#1170F3;" d="M-2047.65-653.82l-0.828,0.23v279.984h37.377v-290.926L-2047.65-653.82z"/>
		</g>
		<g>
			<path style="fill:#1170F3;" d="M-1814.192-564.767c-14.436-13.838-34.435-20.78-60.089-20.78c-22.62,0-41.561,5.839-56.779,17.47
				c-15.264,11.677-24.596,27.447-28.09,47.307h38.113c2.529-10.39,7.816-18.436,15.769-24.091
				c7.954-5.655,18.068-8.459,30.297-8.459c14.758,0,26.251,4.138,34.481,12.459c8.184,8.321,12.275,20.183,12.275,35.676v10.39
				h-60.594c-23.585,0-41.745,5.471-54.572,16.459c-12.827,10.942-19.217,26.251-19.217,45.883c0,18.482,6.391,33.515,19.217,45.193
				c12.827,11.678,29.515,17.47,50.066,17.47c14.298,0,27.217-3.494,38.756-10.528c11.586-7.08,19.999-16.827,25.286-29.286h1.425
				v35.998h35.308v-132.636C-1792.538-531.39-1799.756-550.929-1814.192-564.767z M-1828.214-458.107
				c0,10.896-2.528,20.642-7.632,29.286c-5.057,8.643-11.953,15.447-20.596,20.413c-8.643,4.965-18.436,7.448-29.286,7.448
				c-12.689,0-22.849-2.988-30.435-9.011c-7.632-5.977-11.448-14.068-11.448-24.229c0-10.16,3.494-18.068,10.574-23.723
				c7.034-5.655,17.24-8.459,30.619-8.459h58.203V-458.107z"/>
		</g>
		<g>
			<path style="fill:#1170F3;" d="M-1628.731-583.111c-15.217,0-28.182,3.908-38.802,11.769
				c-10.62,7.862-18.114,18.344-22.482,31.493h-1.379v-41.561h-35.676v207.804h37.377v-108.362c0-20.781,5.103-37.285,15.264-49.56
				c10.16-12.229,24.688-18.344,43.629-18.344h17.332v-33.239H-1628.731z"/>
		</g>
	</g>
	<g>
		<g>
			
				<linearGradient id="SVGID_00000090278706556555689270000017750981253242146954_" gradientUnits="userSpaceOnUse" x1="-3121.8647" y1="-372.9846" x2="-2931.707" y2="-585.4448">
				<stop  offset="0" style="stop-color:#1170F3"/>
				<stop  offset="1" style="stop-color:#B95FDE"/>
			</linearGradient>
			<polygon style="fill:url(#SVGID_00000090278706556555689270000017750981253242146954_);" points="-2857.341,-405.667 
				-2981.447,-442.007 -3208.477,-302.745 -2925.052,-586.169 -3069.214,-529.774 -3105.646,-653.972 -2981.447,-617.54 
				-2857.341,-653.881 -2893.68,-529.774 			"/>
			
				<linearGradient id="SVGID_00000144310793233923713700000015245353899517104026_" gradientUnits="userSpaceOnUse" x1="-3152.0198" y1="-399.9741" x2="-2961.8621" y2="-612.4344">
				<stop  offset="0" style="stop-color:#1170F3"/>
				<stop  offset="1" style="stop-color:#B95FDE"/>
			</linearGradient>
			<polygon style="fill:url(#SVGID_00000144310793233923713700000015245353899517104026_);" points="-3091.197,-493.937 
				-3017.428,-524.346 -3160.218,-381.556 			"/>
		</g>
		<g>
			<polygon style="fill:#1170F3;" points="-3189.301,-528.636 -3176.559,-505.339 -3153.261,-492.597 -3176.559,-479.855 
				-3189.301,-456.557 -3202.043,-479.855 -3225.34,-492.597 -3202.043,-505.339 			"/>
		</g>
		<g>
			<polygon style="fill:#1170F3;" points="-2955.681,-363.295 -2973.157,-353.737 -2982.716,-336.26 -2992.274,-353.737 
				-3009.751,-363.295 -2992.274,-372.854 -2982.716,-390.331 -2973.157,-372.854 			"/>
		</g>
	</g>
</g>
<g>
	<g>
		<polygon points="1979.985,632.601 1753.596,566.311 1339.458,820.347 1856.469,303.336 1593.495,406.21 1527.037,179.653 
			1753.596,246.11 1979.986,179.82 1913.696,406.21 		"/>
		<polygon points="1553.395,471.583 1687.961,416.112 1427.489,676.584 		"/>
	</g>
	<polygon points="1374.437,408.285 1397.681,450.784 1440.179,474.027 1397.681,497.271 1374.437,539.769 1351.194,497.271 
		1308.695,474.027 1351.194,450.784 	"/>
	<polygon points="1800.598,709.893 1768.717,727.329 1751.281,759.21 1733.845,727.329 1701.965,709.893 1733.845,692.457 
		1751.281,660.577 1768.717,692.457 	"/>
</g>
<g>
	<g>
		<g>
			<polygon style="fill:#FFFFFF;" points="835.645,632.601 609.255,566.311 195.117,820.347 712.128,303.336 449.155,406.21 
				382.697,179.653 609.255,246.11 835.645,179.82 769.356,406.21 			"/>
		</g>
		<g>
			<polygon style="fill:#FFFFFF;" points="409.055,471.583 543.621,416.112 283.148,676.584 			"/>
		</g>
	</g>
	<g>
		<polygon style="fill:#FFFFFF;" points="230.097,408.285 253.34,450.784 295.839,474.027 253.34,497.271 230.097,539.769 
			206.853,497.271 164.355,474.027 206.853,450.784 		"/>
	</g>
	<g>
		<polygon style="fill:#FFFFFF;" points="656.257,709.893 624.377,727.329 606.941,759.21 589.505,727.329 557.624,709.893 
			589.505,692.457 606.941,660.577 624.377,692.457 		"/>
	</g>
</g>
<g>
	<g>
		<g>
			<polygon style="fill:#B95FDE;" points="-279.589,632.601 -505.979,566.311 -920.117,820.347 -403.106,303.336 -666.079,406.21 
				-732.537,179.653 -505.979,246.11 -279.589,179.82 -345.878,406.21 			"/>
		</g>
		<g>
			<polygon style="fill:#B95FDE;" points="-706.179,471.583 -571.613,416.112 -832.086,676.584 			"/>
		</g>
	</g>
	<g>
		<polygon style="fill:#B95FDE;" points="-885.137,408.285 -861.894,450.784 -819.395,474.027 -861.894,497.271 -885.137,539.769 
			-908.381,497.271 -950.879,474.027 -908.381,450.784 		"/>
	</g>
	<g>
		<polygon style="fill:#B95FDE;" points="-458.977,709.893 -490.857,727.329 -508.293,759.21 -525.729,727.329 -557.61,709.893 
			-525.729,692.457 -508.293,660.577 -490.857,692.457 		"/>
	</g>
</g>
<g>
	<g>
		<g>
			<polygon style="fill:#1170F3;" points="-1449.972,632.601 -1676.362,566.311 -2090.5,820.347 -1573.489,303.336 
				-1836.462,406.21 -1902.92,179.653 -1676.362,246.11 -1449.972,179.82 -1516.261,406.21 			"/>
		</g>
		<g>
			<polygon style="fill:#1170F3;" points="-1876.562,471.583 -1741.996,416.112 -2002.469,676.584 			"/>
		</g>
	</g>
	<g>
		<polygon style="fill:#1170F3;" points="-2055.52,408.285 -2032.277,450.784 -1989.778,474.027 -2032.277,497.271 
			-2055.52,539.769 -2078.763,497.271 -2121.262,474.027 -2078.763,450.784 		"/>
	</g>
	<g>
		<polygon style="fill:#1170F3;" points="-1629.36,709.893 -1661.24,727.329 -1678.676,759.21 -1696.112,727.329 -1727.993,709.893 
			-1696.112,692.457 -1678.676,660.577 -1661.24,692.457 		"/>
	</g>
</g>
<g>
	<g>
		
			<linearGradient id="SVGID_00000121271120357611896750000015999708624332971445_" gradientUnits="userSpaceOnUse" x1="-3026.2935" y1="692.2189" x2="-2679.4155" y2="304.6575">
			<stop  offset="0" style="stop-color:#1170F3"/>
			<stop  offset="1" style="stop-color:#B95FDE"/>
		</linearGradient>
		<polygon style="fill:url(#SVGID_00000121271120357611896750000015999708624332971445_);" points="-2543.759,632.601 
			-2770.149,566.311 -3184.287,820.347 -2667.276,303.336 -2930.249,406.21 -2996.708,179.653 -2770.149,246.11 -2543.759,179.82 
			-2610.048,406.21 		"/>
		
			<linearGradient id="SVGID_00000049937667110459454600000008655510510080758450_" gradientUnits="userSpaceOnUse" x1="-3081.301" y1="642.9857" x2="-2734.4229" y2="255.4243">
			<stop  offset="0" style="stop-color:#1170F3"/>
			<stop  offset="1" style="stop-color:#B95FDE"/>
		</linearGradient>
		<polygon style="fill:url(#SVGID_00000049937667110459454600000008655510510080758450_);" points="-2970.35,471.583 
			-2835.783,416.112 -3096.256,676.584 		"/>
	</g>
	<g>
		<polygon style="fill:#1170F3;" points="-3149.307,408.285 -3126.064,450.784 -3083.565,474.027 -3126.064,497.271 
			-3149.307,539.769 -3172.551,497.271 -3215.05,474.027 -3172.551,450.784 		"/>
	</g>
	<g>
		<polygon style="fill:#1170F3;" points="-2723.147,709.893 -2755.028,727.329 -2772.464,759.21 -2789.9,727.329 -2821.78,709.893 
			-2789.9,692.457 -2772.464,660.577 -2755.028,692.457 		"/>
	</g>
</g>
</svg>
