<?xml version="1.0" encoding="iso-8859-1"?>
<!-- Generator: Adobe Illustrator 25.4.1, SVG Export Plug-In . SVG Version: 6.00 Build 0)  -->
<svg version="1.1" id="Calque_1" xmlns="http://www.w3.org/2000/svg" xmlns:xlink="http://www.w3.org/1999/xlink" x="0px" y="0px"
	 viewBox="0 0 1000 1000" style="enable-background:new 0 0 1000 1000;" xml:space="preserve">
<g>
	<linearGradient id="SVGID_1_" gradientUnits="userSpaceOnUse" x1="-3108.2898" y1="-370.3675" x2="-2888.1348" y2="-589.8031">
		<stop  offset="0" style="stop-color:#1170F3"/>
		<stop  offset="1" style="stop-color:#B95FDE"/>
	</linearGradient>
	<path style="fill:url(#SVGID_1_);" d="M-2849.104-405.696c3.438,11.751-7.467,22.628-19.218,19.19l-95.47-27.953
		c-4.199-1.212-8.708-0.62-12.427,1.663l-118.831,72.899c-15.639,9.581-32.011-11.187-19.049-24.149l150.137-150.109
		c11.835-11.863-0.986-31.476-16.597-25.361l-65.459,25.615c-8.454,3.297-17.922-1.353-20.486-10.06l-25.22-85.917
		c-2.987-10.257,4.931-19.866,14.794-19.866c1.437,0,2.931,0.197,4.424,0.648l97.781,28.686c2.846,0.817,5.861,0.817,8.708,0
		l97.696-28.602c11.751-3.438,22.656,7.467,19.218,19.19l-28.602,97.724c-0.845,2.818-0.845,5.861,0,8.679L-2849.104-405.696z"/>
	<path style="fill:none;" d="M-3076.931-629.746c1.437,0,2.931,0.197,4.424,0.648l97.781,28.686c2.846,0.817,5.861,0.817,8.707,0
		l97.696-28.602c11.751-3.438,22.656,7.467,19.218,19.19l-28.602,97.724c-0.845,2.818-0.845,5.861,0,8.679l28.602,97.724
		c3.438,11.751-7.467,22.628-19.218,19.19l-95.47-27.953c-4.199-1.212-8.707-0.62-12.427,1.663l-118.83,72.899
		c-15.639,9.581-32.011-11.187-19.049-24.149l150.137-150.109c11.835-11.863-0.986-31.476-16.597-25.361l-65.459,25.615
		c-8.454,3.297-17.922-1.353-20.486-10.06l-25.22-85.917C-3094.711-620.137-3086.793-629.746-3076.931-629.746z"/>
	
		<linearGradient id="SVGID_00000159436945993440264160000001739047727756461472_" gradientUnits="userSpaceOnUse" x1="-3144.2488" y1="-393.6762" x2="-2883.0845" y2="-621.7454">
		<stop  offset="0" style="stop-color:#1170F3"/>
		<stop  offset="1" style="stop-color:#B95FDE"/>
	</linearGradient>
	<path style="fill:url(#SVGID_00000159436945993440264160000001739047727756461472_);" d="M-3035.226-474.706l-74.843,74.815
		c-6.481,6.509-16.879-1.691-12.061-9.524l34.857-56.752c1.719-2.79,4.255-4.96,7.298-6.199l36.323-14.963
		c1.043-0.451,2.085-0.648,3.072-0.648C-3034.268-487.978-3030.041-479.891-3035.226-474.706z"/>
	<path style="fill:none;" d="M-3040.58-487.978c-0.986,0-2.029,0.197-3.072,0.648l-36.323,14.963
		c-3.043,1.24-5.579,3.41-7.298,6.199l-34.857,56.752c-4.819,7.834,5.579,16.034,12.061,9.524l74.843-74.815
		C-3030.041-479.891-3034.268-487.978-3040.58-487.978"/>
	<path style="fill:#1170F3;" d="M-3173.283-534.297l6.579,12.028c0.602,1.102,1.509,2.008,2.611,2.613l12.028,6.577
		c4.558,2.492,4.558,9.039,0,11.531l-12.028,6.577c-1.102,0.604-2.008,1.509-2.611,2.613l-6.579,12.028
		c-2.492,4.558-9.036,4.558-11.529,0l-6.579-12.028c-0.602-1.104-1.509-2.008-2.611-2.613l-12.031-6.577
		c-4.555-2.492-4.555-9.039,0-11.531l12.031-6.577c1.102-0.604,2.008-1.511,2.611-2.613l6.579-12.028
		C-3182.32-538.854-3175.775-538.854-3173.283-534.297"/>
	<path style="fill:#1170F3;" d="M-2948.112-330.198l-5.968,3.263c-1.102,0.604-2.008,1.509-2.611,2.613l-3.265,5.968
		c-2.492,4.555-9.037,4.555-11.529,0l-3.263-5.968c-0.604-1.104-1.509-2.008-2.613-2.613l-5.968-3.263
		c-4.555-2.492-4.555-9.036,0-11.529l5.968-3.263c1.104-0.604,2.008-1.511,2.613-2.613l3.263-5.968
		c2.492-4.558,9.037-4.558,11.529,0l3.265,5.968c0.602,1.102,1.509,2.008,2.611,2.613l5.968,3.263
		C-2943.555-339.235-2943.555-332.691-2948.112-330.198"/>
	<path style="fill:#1170F3;" d="M-2620.981-483.116l-34.026-7.184c-19.972-4.293-29.959-13.014-29.959-26.209
		c0-8.631,3.39-15.408,10.213-20.425c6.822-4.969,15.997-7.455,27.565-7.455c12.019,0,21.868,2.801,29.461,8.496
		c7.591,5.648,12.517,13.962,14.821,24.851h35.381c-1.809-19.293-9.805-34.748-23.995-46.315
		c-14.188-11.568-32.173-17.352-53.952-17.352c-22.007,0-39.856,5.602-53.457,16.855c-13.601,11.251-20.425,25.938-20.425,44.103
		c0,28.557,18.39,46.722,55.174,54.449l33.665,7.501c20.651,4.293,30.997,13.918,30.997,28.918c0,9.536-3.57,16.901-10.71,22.142
		c-7.184,5.197-17.306,7.817-30.5,7.817c-14.505,0-26.073-3.116-34.705-9.352c-8.629-6.237-13.737-15.274-15.318-27.068h-36.104
		c1.402,20.425,9.715,36.691,25.033,48.846c15.32,12.155,35.246,18.211,59.738,18.211c23.859,0,42.565-5.738,56.166-17.217
		c13.647-11.432,20.425-26.93,20.425-46.453C-2565.492-456.14-2583.973-475.207-2620.981-483.116"/>
	<g>
		<path style="fill:#1170F3;" d="M-2472.227-395.634v-145.727h48.349v-29.282h-48.665v-61.273h-0.182l-35.922,10.53v50.743h-35.066
			v29.282h34.749v141.616c0,11.115,2.893,19.475,8.677,25.033c5.782,5.556,14.006,8.314,24.672,8.314h56.527v-29.236H-2472.227z"/>
	</g>
	<g>
		<path style="fill:#1170F3;" d="M-2209.06-478.37c0-19.746-3.885-36.827-11.612-51.243c-7.683-14.413-18.211-25.53-31.45-33.347
			c-13.285-7.819-28.424-11.75-45.458-11.75c-18.165,0-34.341,4.339-48.531,12.924c-14.142,8.631-25.305,20.833-33.347,36.602
			c-8.044,15.771-12.065,34.433-12.065,55.986c0,21.825,4.113,40.715,12.427,56.709c8.27,15.997,19.656,28.378,34.206,37.099
			c14.505,8.721,30.953,13.104,49.346,13.104c21.553,0,40.169-5.828,55.85-17.532c15.633-11.704,25.62-27.97,29.959-48.846h-37.46
			c-2.937,10.664-8.767,19.069-17.352,25.169c-8.631,6.146-19.069,9.218-31.314,9.218c-17.035,0-31.043-6.1-42.068-18.211
			c-10.981-12.155-17.081-28.647-18.211-49.523h147.083V-478.37z M-2354.425-489.939c2.937-16.809,9.444-29.823,19.567-39.131
			c10.077-9.308,22.412-13.964,36.917-13.964c14.551,0,26.615,4.656,36.286,13.964c9.623,9.308,15.226,22.322,16.853,39.131
			H-2354.425z"/>
	</g>
	<g>
		<polygon style="fill:#1170F3;" points="-2156.824,-641.811 -2157.683,-641.54 -2157.683,-366.398 -2120.901,-366.398 
			-2120.901,-652.339 		"/>
	</g>
	<g>
		<polygon style="fill:#1170F3;" points="-2056.103,-641.811 -2056.916,-641.586 -2056.916,-366.398 -2020.181,-366.398 
			-2020.181,-652.339 		"/>
	</g>
	<g>
		<path style="fill:#1170F3;" d="M-1826.645-554.284c-14.19-13.601-33.846-20.425-59.059-20.425
			c-22.232,0-40.848,5.738-55.807,17.171c-15.002,11.479-24.175,26.978-27.609,46.499h37.46
			c2.485-10.213,7.683-18.121,15.499-23.677c7.817-5.559,17.758-8.316,29.777-8.316c14.505,0,25.802,4.067,33.89,12.245
			c8.044,8.18,12.065,19.838,12.065,35.066v10.212h-59.556c-23.18,0-41.03,5.377-53.636,16.176
			c-12.606,10.753-18.887,25.802-18.887,45.097c0,18.165,6.281,32.94,18.887,44.418c12.607,11.476,29.011,17.171,49.208,17.171
			c14.054,0,26.75-3.434,38.093-10.348c11.386-6.958,19.656-16.538,24.853-28.783h1.4v35.382h34.703v-130.365
			C-1805.364-521.478-1812.457-540.683-1826.645-554.284 M-1840.427-449.452c0,10.71-2.486,20.289-7.501,28.785
			c-4.97,8.493-11.748,15.182-20.244,20.062s-18.119,7.322-28.785,7.322c-12.471,0-22.458-2.937-29.913-8.857
			c-7.501-5.876-11.251-13.828-11.251-23.813c0-9.987,3.434-17.76,10.392-23.318c6.914-5.556,16.945-8.314,30.094-8.314h57.206
			V-449.452z"/>
	</g>
	<g>
		<path style="fill:#1170F3;" d="M-1644.362-572.314c-14.957,0-27.699,3.842-38.137,11.568
			c-10.438,7.727-17.804,18.029-22.096,30.953h-1.356v-40.85h-35.066v204.245h36.737v-106.506c0-20.423,5.015-36.645,15.002-48.711
			c9.987-12.019,24.264-18.029,42.88-18.029h17.037v-32.67H-1644.362z"/>
	</g>
</g>
<g>
	
		<linearGradient id="SVGID_00000146494565112332011390000007882920841493507969_" gradientUnits="userSpaceOnUse" x1="-1058.5878" y1="-370.3675" x2="-838.4327" y2="-589.8031">
		<stop  offset="0" style="stop-color:#1170F3"/>
		<stop  offset="1" style="stop-color:#B95FDE"/>
	</linearGradient>
	<path style="fill:url(#SVGID_00000146494565112332011390000007882920841493507969_);" d="M-799.402-405.696
		c3.438,11.751-7.467,22.628-19.218,19.19l-95.47-27.953c-4.199-1.212-8.707-0.62-12.427,1.663l-118.831,72.899
		c-15.639,9.581-32.011-11.187-19.049-24.149l150.137-150.109c11.835-11.863-0.986-31.476-16.597-25.361l-65.46,25.615
		c-8.454,3.297-17.922-1.353-20.486-10.06l-25.22-85.917c-2.987-10.257,4.931-19.866,14.794-19.866c1.437,0,2.931,0.197,4.424,0.648
		l97.781,28.686c2.846,0.817,5.861,0.817,8.707,0l97.696-28.602c11.751-3.438,22.656,7.467,19.218,19.19l-28.602,97.724
		c-0.845,2.818-0.845,5.861,0,8.679L-799.402-405.696z"/>
	<path style="fill:none;" d="M-1027.228-629.746c1.437,0,2.931,0.197,4.424,0.648l97.781,28.686c2.846,0.817,5.861,0.817,8.707,0
		l97.696-28.602c11.751-3.438,22.656,7.467,19.218,19.19l-28.602,97.724c-0.845,2.818-0.845,5.861,0,8.679l28.602,97.724
		c3.438,11.751-7.467,22.628-19.218,19.19l-95.47-27.953c-4.199-1.212-8.707-0.62-12.427,1.663l-118.83,72.899
		c-15.639,9.581-32.011-11.187-19.049-24.149l150.137-150.109c11.835-11.863-0.986-31.476-16.597-25.361l-65.46,25.615
		c-8.454,3.297-17.922-1.353-20.486-10.06l-25.22-85.917C-1045.009-620.137-1037.091-629.746-1027.228-629.746z"/>
	
		<linearGradient id="SVGID_00000024708145940509188180000010818173935668960702_" gradientUnits="userSpaceOnUse" x1="-1094.5466" y1="-393.6762" x2="-833.3823" y2="-621.7454">
		<stop  offset="0" style="stop-color:#1170F3"/>
		<stop  offset="1" style="stop-color:#B95FDE"/>
	</linearGradient>
	<path style="fill:url(#SVGID_00000024708145940509188180000010818173935668960702_);" d="M-985.524-474.706l-74.843,74.815
		c-6.481,6.509-16.879-1.691-12.061-9.524l34.857-56.752c1.719-2.79,4.255-4.96,7.298-6.199l36.323-14.963
		c1.043-0.451,2.085-0.648,3.072-0.648C-984.566-487.978-980.339-479.891-985.524-474.706z"/>
	<path style="fill:none;" d="M-990.878-487.978c-0.986,0-2.029,0.197-3.072,0.648l-36.323,14.963
		c-3.043,1.24-5.579,3.41-7.298,6.199l-34.857,56.752c-4.819,7.834,5.579,16.034,12.061,9.524l74.843-74.815
		C-980.339-479.891-984.566-487.978-990.878-487.978"/>
	<path style="fill:#1170F3;" d="M-1123.581-534.297l6.579,12.028c0.602,1.102,1.509,2.008,2.611,2.613l12.028,6.577
		c4.558,2.492,4.558,9.039,0,11.531l-12.028,6.577c-1.102,0.604-2.008,1.509-2.611,2.613l-6.579,12.028
		c-2.492,4.558-9.036,4.558-11.529,0l-6.579-12.028c-0.602-1.104-1.509-2.008-2.611-2.613l-12.03-6.577
		c-4.556-2.492-4.556-9.039,0-11.531l12.03-6.577c1.102-0.604,2.008-1.511,2.611-2.613l6.579-12.028
		C-1132.618-538.854-1126.073-538.854-1123.581-534.297"/>
	<path style="fill:#1170F3;" d="M-898.41-330.198l-5.968,3.263c-1.102,0.604-2.008,1.509-2.611,2.613l-3.265,5.968
		c-2.492,4.555-9.036,4.555-11.529,0l-3.263-5.968c-0.604-1.104-1.509-2.008-2.613-2.613l-5.968-3.263
		c-4.556-2.492-4.556-9.036,0-11.529l5.968-3.263c1.104-0.604,2.008-1.511,2.613-2.613l3.263-5.968
		c2.492-4.558,9.037-4.558,11.529,0l3.265,5.968c0.602,1.102,1.509,2.008,2.611,2.613l5.968,3.263
		C-893.853-339.235-893.853-332.691-898.41-330.198"/>
	<path style="fill:#FFFFFF;" d="M-571.279-483.116l-34.026-7.184c-19.972-4.293-29.959-13.014-29.959-26.209
		c0-8.631,3.39-15.408,10.213-20.425c6.822-4.969,15.997-7.455,27.565-7.455c12.019,0,21.868,2.801,29.461,8.496
		c7.591,5.648,12.517,13.962,14.821,24.851h35.381c-1.809-19.293-9.805-34.748-23.995-46.315
		c-14.188-11.568-32.173-17.352-53.952-17.352c-22.006,0-39.856,5.602-53.457,16.855c-13.601,11.251-20.425,25.938-20.425,44.103
		c0,28.557,18.39,46.722,55.174,54.449l33.665,7.501c20.651,4.293,30.997,13.918,30.997,28.918c0,9.536-3.57,16.901-10.71,22.142
		c-7.184,5.197-17.306,7.817-30.5,7.817c-14.505,0-26.073-3.116-34.705-9.352c-8.629-6.237-13.737-15.274-15.318-27.068h-36.104
		c1.402,20.425,9.715,36.691,25.033,48.846c15.32,12.155,35.246,18.211,59.738,18.211c23.859,0,42.565-5.738,56.166-17.217
		c13.647-11.432,20.425-26.93,20.425-46.453C-515.79-456.14-534.271-475.207-571.279-483.116"/>
	<g>
		<path style="fill:#FFFFFF;" d="M-422.525-395.634v-145.727h48.349v-29.282h-48.665v-61.273h-0.182l-35.922,10.53v50.743h-35.066
			v29.282h34.749v141.616c0,11.115,2.893,19.475,8.677,25.033c5.782,5.556,14.006,8.314,24.672,8.314h56.527v-29.236H-422.525z"/>
	</g>
	<g>
		<path style="fill:#FFFFFF;" d="M-159.358-478.37c0-19.746-3.885-36.827-11.612-51.243c-7.683-14.413-18.211-25.53-31.45-33.347
			c-13.285-7.819-28.424-11.75-45.458-11.75c-18.165,0-34.341,4.339-48.531,12.924c-14.142,8.631-25.305,20.833-33.347,36.602
			c-8.044,15.771-12.065,34.433-12.065,55.986c0,21.825,4.113,40.715,12.427,56.709c8.27,15.997,19.656,28.378,34.205,37.099
			c14.505,8.721,30.953,13.104,49.346,13.104c21.553,0,40.169-5.828,55.85-17.532c15.633-11.704,25.62-27.97,29.959-48.846h-37.46
			c-2.937,10.664-8.767,19.069-17.352,25.169c-8.631,6.146-19.069,9.218-31.314,9.218c-17.035,0-31.043-6.1-42.068-18.211
			c-10.981-12.155-17.081-28.647-18.211-49.523h147.083V-478.37z M-304.723-489.939c2.937-16.809,9.444-29.823,19.567-39.131
			c10.077-9.308,22.412-13.964,36.917-13.964c14.551,0,26.614,4.656,36.286,13.964c9.623,9.308,15.226,22.322,16.853,39.131
			H-304.723z"/>
	</g>
	<g>
		<polygon style="fill:#FFFFFF;" points="-107.122,-641.811 -107.98,-641.54 -107.98,-366.398 -71.199,-366.398 -71.199,-652.339 		
			"/>
	</g>
	<g>
		<polygon style="fill:#FFFFFF;" points="-6.401,-641.811 -7.214,-641.586 -7.214,-366.398 29.522,-366.398 29.522,-652.339 		"/>
	</g>
	<g>
		<path style="fill:#FFFFFF;" d="M223.057-554.284c-14.19-13.601-33.846-20.425-59.059-20.425c-22.232,0-40.848,5.738-55.807,17.171
			c-15.002,11.479-24.175,26.978-27.609,46.499h37.46c2.486-10.213,7.683-18.121,15.499-23.677
			c7.817-5.559,17.758-8.316,29.777-8.316c14.505,0,25.802,4.067,33.89,12.245c8.044,8.18,12.065,19.838,12.065,35.066v10.212
			h-59.556c-23.18,0-41.03,5.377-53.636,16.176c-12.606,10.753-18.887,25.802-18.887,45.097c0,18.165,6.281,32.94,18.887,44.418
			c12.607,11.476,29.011,17.171,49.208,17.171c14.054,0,26.75-3.434,38.093-10.348c11.386-6.958,19.656-16.538,24.853-28.783h1.4
			v35.382h34.703v-130.365C244.339-521.478,237.245-540.683,223.057-554.284 M209.275-449.452c0,10.71-2.486,20.289-7.501,28.785
			c-4.969,8.493-11.748,15.182-20.243,20.062c-8.496,4.88-18.119,7.322-28.785,7.322c-12.471,0-22.458-2.937-29.913-8.857
			c-7.501-5.876-11.251-13.828-11.251-23.813c0-9.987,3.434-17.76,10.392-23.318c6.914-5.556,16.945-8.314,30.094-8.314h57.206
			V-449.452z"/>
	</g>
	<g>
		<path style="fill:#FFFFFF;" d="M405.34-572.314c-14.957,0-27.699,3.842-38.137,11.568s-17.804,18.029-22.096,30.953h-1.356v-40.85
			h-35.066v204.245h36.737v-106.506c0-20.423,5.015-36.645,15.002-48.711c9.987-12.019,24.264-18.029,42.88-18.029h17.037v-32.67
			H405.34z"/>
	</g>
</g>
<g>
	<path style="fill:#FFFFFF;" d="M1296.258-405.696c3.438,11.751-7.468,22.628-19.218,19.19l-95.47-27.953
		c-4.199-1.212-8.707-0.62-12.427,1.663l-118.831,72.899c-15.639,9.581-32.011-11.187-19.049-24.149L1181.4-514.156
		c11.835-11.863-0.986-31.476-16.597-25.361l-65.46,25.615c-8.454,3.297-17.922-1.353-20.486-10.06l-25.22-85.917
		c-2.987-10.257,4.931-19.866,14.794-19.866c1.437,0,2.931,0.197,4.424,0.648l97.781,28.686c2.846,0.817,5.861,0.817,8.707,0
		l97.696-28.602c11.75-3.438,22.656,7.467,19.218,19.19l-28.602,97.724c-0.845,2.818-0.845,5.861,0,8.679L1296.258-405.696z"/>
	<path style="fill:#FFFFFF;" d="M1068.431-629.746c1.437,0,2.931,0.197,4.424,0.648l97.781,28.686c2.846,0.817,5.861,0.817,8.707,0
		l97.696-28.602c11.75-3.438,22.656,7.467,19.218,19.19l-28.602,97.724c-0.845,2.818-0.845,5.861,0,8.679l28.602,97.724
		c3.438,11.751-7.467,22.628-19.218,19.19l-95.47-27.953c-4.199-1.212-8.707-0.62-12.427,1.663l-118.83,72.899
		c-15.639,9.581-32.011-11.187-19.049-24.149L1181.4-514.156c11.835-11.863-0.986-31.476-16.597-25.361l-65.46,25.615
		c-8.454,3.297-17.922-1.353-20.486-10.06l-25.22-85.917C1050.65-620.137,1058.569-629.746,1068.431-629.746z"/>
	<path style="fill:#FFFFFF;" d="M1110.136-474.706l-74.843,74.815c-6.481,6.509-16.879-1.691-12.061-9.524l34.857-56.752
		c1.719-2.79,4.255-4.96,7.298-6.199l36.322-14.963c1.043-0.451,2.085-0.648,3.072-0.648
		C1111.094-487.978,1115.321-479.891,1110.136-474.706z"/>
	<path style="fill:#FFFFFF;" d="M1104.782-487.978c-0.986,0-2.029,0.197-3.072,0.648l-36.323,14.963
		c-3.043,1.24-5.579,3.41-7.298,6.199l-34.857,56.752c-4.819,7.834,5.579,16.034,12.06,9.524l74.843-74.815
		C1115.321-479.891,1111.094-487.978,1104.782-487.978"/>
	<path style="fill:#FFFFFF;" d="M972.079-534.297l6.579,12.028c0.602,1.102,1.509,2.008,2.611,2.613l12.028,6.577
		c4.558,2.492,4.558,9.039,0,11.531l-12.028,6.577c-1.102,0.604-2.008,1.509-2.611,2.613l-6.579,12.028
		c-2.492,4.558-9.037,4.558-11.529,0l-6.579-12.028c-0.602-1.104-1.509-2.008-2.611-2.613l-12.03-6.577
		c-4.556-2.492-4.556-9.039,0-11.531l12.03-6.577c1.102-0.604,2.008-1.511,2.611-2.613l6.579-12.028
		C963.042-538.854,969.586-538.854,972.079-534.297"/>
	<path style="fill:#FFFFFF;" d="M1197.249-330.198l-5.968,3.263c-1.102,0.604-2.008,1.509-2.611,2.613l-3.265,5.968
		c-2.492,4.555-9.036,4.555-11.529,0l-3.263-5.968c-0.604-1.104-1.509-2.008-2.613-2.613l-5.968-3.263
		c-4.556-2.492-4.556-9.036,0-11.529l5.968-3.263c1.104-0.604,2.008-1.511,2.613-2.613l3.263-5.968
		c2.492-4.558,9.036-4.558,11.529,0l3.265,5.968c0.602,1.102,1.509,2.008,2.611,2.613l5.968,3.263
		C1201.807-339.235,1201.807-332.691,1197.249-330.198"/>
	<path style="fill:#FFFFFF;" d="M1524.38-483.116l-34.026-7.184c-19.972-4.293-29.959-13.014-29.959-26.209
		c0-8.631,3.39-15.408,10.213-20.425c6.822-4.969,15.997-7.455,27.565-7.455c12.019,0,21.868,2.801,29.462,8.496
		c7.591,5.648,12.517,13.962,14.821,24.851h35.381c-1.809-19.293-9.805-34.748-23.995-46.315
		c-14.188-11.568-32.173-17.352-53.952-17.352c-22.006,0-39.856,5.602-53.457,16.855c-13.601,11.251-20.425,25.938-20.425,44.103
		c0,28.557,18.391,46.722,55.174,54.449l33.664,7.501c20.651,4.293,30.997,13.918,30.997,28.918c0,9.536-3.57,16.901-10.71,22.142
		c-7.184,5.197-17.306,7.817-30.5,7.817c-14.505,0-26.073-3.116-34.705-9.352c-8.629-6.237-13.737-15.274-15.318-27.068h-36.104
		c1.402,20.425,9.715,36.691,25.033,48.846c15.32,12.155,35.246,18.211,59.738,18.211c23.859,0,42.565-5.738,56.166-17.217
		c13.647-11.432,20.425-26.93,20.425-46.453C1579.869-456.14,1561.389-475.207,1524.38-483.116"/>
	<g>
		<path style="fill:#FFFFFF;" d="M1673.135-395.634v-145.727h48.349v-29.282h-48.665v-61.273h-0.182l-35.922,10.53v50.743h-35.066
			v29.282h34.749v141.616c0,11.115,2.893,19.475,8.677,25.033c5.782,5.556,14.006,8.314,24.672,8.314h56.527v-29.236H1673.135z"/>
	</g>
	<g>
		<path style="fill:#FFFFFF;" d="M1936.302-478.37c0-19.746-3.885-36.827-11.612-51.243c-7.683-14.413-18.211-25.53-31.45-33.347
			c-13.285-7.819-28.423-11.75-45.458-11.75c-18.165,0-34.341,4.339-48.531,12.924c-14.142,8.631-25.305,20.833-33.347,36.602
			c-8.044,15.771-12.065,34.433-12.065,55.986c0,21.825,4.113,40.715,12.427,56.709c8.27,15.997,19.656,28.378,34.205,37.099
			c14.505,8.721,30.953,13.104,49.346,13.104c21.553,0,40.169-5.828,55.85-17.532c15.633-11.704,25.62-27.97,29.959-48.846h-37.46
			c-2.937,10.664-8.767,19.069-17.352,25.169c-8.631,6.146-19.069,9.218-31.314,9.218c-17.035,0-31.043-6.1-42.068-18.211
			c-10.981-12.155-17.081-28.647-18.211-49.523h147.083V-478.37z M1790.936-489.939c2.937-16.809,9.444-29.823,19.567-39.131
			c10.077-9.308,22.412-13.964,36.917-13.964c14.551,0,26.614,4.656,36.286,13.964c9.623,9.308,15.226,22.322,16.853,39.131
			H1790.936z"/>
	</g>
	<g>
		<polygon style="fill:#FFFFFF;" points="1988.538,-641.811 1987.679,-641.54 1987.679,-366.398 2024.46,-366.398 2024.46,-652.339 
					"/>
	</g>
	<g>
		<polygon style="fill:#FFFFFF;" points="2089.259,-641.811 2088.446,-641.586 2088.446,-366.398 2125.181,-366.398 
			2125.181,-652.339 		"/>
	</g>
	<g>
		<path style="fill:#FFFFFF;" d="M2318.717-554.284c-14.19-13.601-33.846-20.425-59.059-20.425
			c-22.232,0-40.848,5.738-55.807,17.171c-15.002,11.479-24.175,26.978-27.609,46.499h37.46c2.486-10.213,7.683-18.121,15.5-23.677
			c7.817-5.559,17.758-8.316,29.777-8.316c14.505,0,25.802,4.067,33.89,12.245c8.044,8.18,12.066,19.838,12.066,35.066v10.212
			h-59.556c-23.18,0-41.03,5.377-53.636,16.176c-12.606,10.753-18.887,25.802-18.887,45.097c0,18.165,6.281,32.94,18.887,44.418
			c12.606,11.476,29.01,17.171,49.208,17.171c14.054,0,26.75-3.434,38.093-10.348c11.386-6.958,19.656-16.538,24.853-28.783h1.4
			v35.382h34.703v-130.365C2339.998-521.478,2332.905-540.683,2318.717-554.284 M2304.935-449.452
			c0,10.71-2.486,20.289-7.501,28.785c-4.969,8.493-11.748,15.182-20.243,20.062s-18.119,7.322-28.785,7.322
			c-12.47,0-22.458-2.937-29.913-8.857c-7.501-5.876-11.25-13.828-11.25-23.813c0-9.987,3.434-17.76,10.392-23.318
			c6.914-5.556,16.945-8.314,30.094-8.314h57.207V-449.452z"/>
	</g>
	<g>
		<path style="fill:#FFFFFF;" d="M2501-572.314c-14.957,0-27.699,3.842-38.137,11.568c-10.438,7.727-17.804,18.029-22.096,30.953
			h-1.356v-40.85h-35.066v204.245h36.737v-106.506c0-20.423,5.015-36.645,15.002-48.711c9.987-12.019,24.264-18.029,42.881-18.029
			h17.037v-32.67H2501z"/>
	</g>
</g>
<g>
	<path d="M3318.385-405.696c3.438,11.751-7.468,22.628-19.218,19.19l-95.47-27.953c-4.198-1.212-8.707-0.62-12.427,1.663
		l-118.831,72.899c-15.639,9.581-32.011-11.187-19.049-24.149l150.137-150.109c11.835-11.863-0.986-31.476-16.597-25.361
		l-65.459,25.615c-8.454,3.297-17.922-1.353-20.486-10.06l-25.22-85.917c-2.987-10.257,4.931-19.866,14.794-19.866
		c1.437,0,2.931,0.197,4.424,0.648l97.781,28.686c2.846,0.817,5.861,0.817,8.707,0l97.696-28.602
		c11.75-3.438,22.656,7.467,19.218,19.19l-28.602,97.724c-0.845,2.818-0.845,5.861,0,8.679L3318.385-405.696z"/>
	<path d="M3090.559-629.746c1.437,0,2.931,0.197,4.424,0.648l97.781,28.686c2.846,0.817,5.861,0.817,8.707,0l97.696-28.602
		c11.75-3.438,22.656,7.467,19.218,19.19l-28.602,97.724c-0.845,2.818-0.845,5.861,0,8.679l28.602,97.724
		c3.438,11.751-7.468,22.628-19.218,19.19l-95.47-27.953c-4.198-1.212-8.707-0.62-12.427,1.663l-118.831,72.899
		c-15.639,9.581-32.011-11.187-19.049-24.149l150.137-150.109c11.835-11.863-0.986-31.476-16.597-25.361l-65.46,25.615
		c-8.454,3.297-17.922-1.353-20.486-10.06l-25.22-85.917C3072.778-620.137,3080.696-629.746,3090.559-629.746z"/>
	<path d="M3132.264-474.706l-74.843,74.815c-6.481,6.509-16.879-1.691-12.061-9.524l34.857-56.752
		c1.719-2.79,4.255-4.96,7.299-6.199l36.322-14.963c1.043-0.451,2.085-0.648,3.072-0.648
		C3133.222-487.978,3137.448-479.891,3132.264-474.706z"/>
	<path d="M3126.91-487.978c-0.986,0-2.029,0.197-3.072,0.648l-36.323,14.963c-3.043,1.24-5.579,3.41-7.298,6.199l-34.857,56.752
		c-4.819,7.834,5.579,16.034,12.061,9.524l74.843-74.815C3137.448-479.891,3133.222-487.978,3126.91-487.978"/>
	<path d="M2994.206-534.297l6.579,12.028c0.602,1.102,1.509,2.008,2.611,2.613l12.028,6.577c4.558,2.492,4.558,9.039,0,11.531
		l-12.028,6.577c-1.102,0.604-2.008,1.509-2.611,2.613l-6.579,12.028c-2.492,4.558-9.037,4.558-11.529,0l-6.579-12.028
		c-0.602-1.104-1.509-2.008-2.611-2.613l-12.03-6.577c-4.555-2.492-4.555-9.039,0-11.531l12.03-6.577
		c1.102-0.604,2.008-1.511,2.611-2.613l6.579-12.028C2985.17-538.854,2991.714-538.854,2994.206-534.297"/>
	<path d="M3219.377-330.198l-5.968,3.263c-1.102,0.604-2.008,1.509-2.611,2.613l-3.265,5.968c-2.492,4.555-9.036,4.555-11.529,0
		l-3.263-5.968c-0.604-1.104-1.509-2.008-2.613-2.613l-5.968-3.263c-4.555-2.492-4.555-9.036,0-11.529l5.968-3.263
		c1.104-0.604,2.008-1.511,2.613-2.613l3.263-5.968c2.492-4.558,9.037-4.558,11.529,0l3.265,5.968
		c0.603,1.102,1.509,2.008,2.611,2.613l5.968,3.263C3223.935-339.235,3223.935-332.691,3219.377-330.198"/>
	<path d="M3546.508-483.116l-34.026-7.184c-19.972-4.293-29.959-13.014-29.959-26.209c0-8.631,3.39-15.408,10.213-20.425
		c6.822-4.969,15.997-7.455,27.565-7.455c12.02,0,21.868,2.801,29.462,8.496c7.591,5.648,12.517,13.962,14.821,24.851h35.382
		c-1.809-19.293-9.805-34.748-23.995-46.315c-14.188-11.568-32.173-17.352-53.952-17.352c-22.006,0-39.856,5.602-53.457,16.855
		c-13.601,11.251-20.425,25.938-20.425,44.103c0,28.557,18.39,46.722,55.174,54.449l33.665,7.501
		c20.651,4.293,30.997,13.918,30.997,28.918c0,9.536-3.57,16.901-10.71,22.142c-7.184,5.197-17.306,7.817-30.5,7.817
		c-14.505,0-26.073-3.116-34.705-9.352c-8.629-6.237-13.736-15.274-15.318-27.068h-36.104c1.402,20.425,9.715,36.691,25.033,48.846
		c15.32,12.155,35.246,18.211,59.738,18.211c23.859,0,42.565-5.738,56.166-17.217c13.647-11.432,20.425-26.93,20.425-46.453
		C3601.997-456.14,3583.517-475.207,3546.508-483.116"/>
	<path d="M3695.262-395.634v-145.727h48.349v-29.282h-48.665v-61.273h-0.182l-35.922,10.53v50.743h-35.066v29.282h34.749v141.616
		c0,11.115,2.893,19.475,8.677,25.033c5.782,5.556,14.006,8.314,24.672,8.314h56.527v-29.236H3695.262z"/>
	<path d="M3958.429-478.37c0-19.746-3.885-36.827-11.612-51.243c-7.683-14.413-18.211-25.53-31.45-33.347
		c-13.285-7.819-28.424-11.75-45.458-11.75c-18.165,0-34.341,4.339-48.531,12.924c-14.142,8.631-25.305,20.833-33.347,36.602
		c-8.044,15.771-12.065,34.433-12.065,55.986c0,21.825,4.113,40.715,12.427,56.709c8.27,15.997,19.656,28.378,34.205,37.099
		c14.505,8.721,30.953,13.104,49.346,13.104c21.553,0,40.169-5.828,55.851-17.532c15.633-11.704,25.62-27.97,29.958-48.846h-37.46
		c-2.937,10.664-8.767,19.069-17.352,25.169c-8.631,6.146-19.069,9.218-31.314,9.218c-17.035,0-31.043-6.1-42.068-18.211
		c-10.981-12.155-17.081-28.647-18.211-49.523h147.083V-478.37z M3813.064-489.939c2.937-16.809,9.444-29.823,19.566-39.131
		c10.077-9.308,22.412-13.964,36.917-13.964c14.551,0,26.615,4.656,36.286,13.964c9.623,9.308,15.226,22.322,16.853,39.131H3813.064
		z"/>
	<polygon points="4010.666,-641.811 4009.807,-641.54 4009.807,-366.398 4046.588,-366.398 4046.588,-652.339 	"/>
	<polygon points="4111.386,-641.811 4110.574,-641.586 4110.574,-366.398 4147.309,-366.398 4147.309,-652.339 	"/>
	<path d="M4340.845-554.284c-14.19-13.601-33.846-20.425-59.059-20.425c-22.232,0-40.848,5.738-55.807,17.171
		c-15.002,11.479-24.175,26.978-27.609,46.499h37.46c2.486-10.213,7.683-18.121,15.5-23.677c7.816-5.559,17.757-8.316,29.777-8.316
		c14.505,0,25.802,4.067,33.89,12.245c8.044,8.18,12.065,19.838,12.065,35.066v10.212h-59.556c-23.181,0-41.03,5.377-53.636,16.176
		c-12.606,10.753-18.888,25.802-18.888,45.097c0,18.165,6.281,32.94,18.888,44.418c12.606,11.476,29.011,17.171,49.208,17.171
		c14.054,0,26.75-3.434,38.093-10.348c11.386-6.958,19.656-16.538,24.854-28.783h1.399v35.382h34.703v-130.365
		C4362.126-521.478,4355.032-540.683,4340.845-554.284 M4327.062-449.452c0,10.71-2.486,20.289-7.501,28.785
		c-4.97,8.493-11.748,15.182-20.244,20.062s-18.119,7.322-28.785,7.322c-12.471,0-22.458-2.937-29.913-8.857
		c-7.501-5.876-11.25-13.828-11.25-23.813c0-9.987,3.434-17.76,10.392-23.318c6.914-5.556,16.945-8.314,30.095-8.314h57.206
		V-449.452z"/>
	<path d="M4523.127-572.314c-14.957,0-27.699,3.842-38.137,11.568c-10.438,7.727-17.803,18.029-22.096,30.953h-1.355v-40.85h-35.066
		v204.245h36.737v-106.506c0-20.423,5.016-36.645,15.002-48.711c9.987-12.019,24.265-18.029,42.88-18.029h17.037v-32.67H4523.127z"
		/>
</g>
<g>
	
		<linearGradient id="SVGID_00000058558378991503964130000012623278477687767941_" gradientUnits="userSpaceOnUse" x1="-3075.7344" y1="711.4964" x2="-2643.4026" y2="280.5776">
		<stop  offset="0" style="stop-color:#1170F3"/>
		<stop  offset="1" style="stop-color:#B95FDE"/>
	</linearGradient>
	<path style="fill:url(#SVGID_00000058558378991503964130000012623278477687767941_);" d="M-2566.756,642.121
		c6.751,23.075-14.664,44.435-37.74,37.684l-187.48-54.894c-8.245-2.379-17.099-1.218-24.403,3.265l-233.355,143.156
		c-30.712,18.814-62.862-21.969-37.407-47.423l294.833-294.778c23.241-23.297-1.937-61.811-32.593-49.803l-128.547,50.301
		c-16.601,6.474-35.194-2.656-40.23-19.755l-49.526-168.721c-5.866-20.143,9.684-39.013,29.052-39.013
		c2.822,0,5.755,0.387,8.688,1.273l192.018,56.333c5.589,1.605,11.51,1.605,17.099,0l191.852-56.167
		c23.075-6.751,44.49,14.664,37.74,37.684l-56.167,191.907c-1.66,5.534-1.66,11.51,0,17.044L-2566.756,642.121z"/>
	<path style="fill:none;" d="M-3014.152,202.14c2.822,0,5.755,0.387,8.688,1.273l192.018,56.333c5.589,1.605,11.51,1.605,17.099,0
		l191.852-56.167c23.075-6.751,44.49,14.664,37.74,37.684l-56.167,191.907c-1.66,5.534-1.66,11.51,0,17.044l56.167,191.907
		c6.751,23.075-14.664,44.435-37.74,37.684l-187.48-54.894c-8.245-2.379-17.099-1.217-24.403,3.265l-233.354,143.156
		c-30.712,18.814-62.862-21.969-37.407-47.423l294.833-294.778c23.241-23.297-1.937-61.811-32.593-49.803l-128.547,50.301
		c-16.601,6.474-35.194-2.656-40.23-19.755l-49.526-168.721C-3049.069,221.009-3033.52,202.14-3014.152,202.14z"/>
	
		<linearGradient id="SVGID_00000183236301811190709550000015714904874241493140_" gradientUnits="userSpaceOnUse" x1="-3146.3489" y1="665.7237" x2="-2633.4849" y2="217.8507">
		<stop  offset="0" style="stop-color:#1170F3"/>
		<stop  offset="1" style="stop-color:#B95FDE"/>
	</linearGradient>
	<path style="fill:url(#SVGID_00000183236301811190709550000015714904874241493140_);" d="M-2932.254,506.601l-146.974,146.918
		c-12.728,12.783-33.147-3.32-23.684-18.704l68.451-111.448c3.375-5.479,8.356-9.739,14.332-12.174l71.329-29.384
		c2.048-0.886,4.095-1.273,6.032-1.273C-2930.373,480.538-2922.072,496.419-2932.254,506.601z"/>
	<path style="fill:none;" d="M-2942.768,480.538c-1.937,0-3.984,0.387-6.032,1.273l-71.329,29.384
		c-5.976,2.435-10.957,6.696-14.332,12.174l-68.451,111.448c-9.463,15.384,10.957,31.487,23.684,18.704l146.974-146.919
		C-2922.072,496.419-2930.373,480.538-2942.768,480.538"/>
	<path style="fill:#1170F3;" d="M-3203.365,389.579l12.92,23.62c1.183,2.164,2.963,3.944,5.127,5.131l23.62,12.916
		c8.95,4.894,8.95,17.75,0,22.644l-23.62,12.916c-2.163,1.187-3.944,2.963-5.127,5.131l-12.92,23.62
		c-4.895,8.95-17.746,8.95-22.64,0l-12.92-23.62c-1.183-2.168-2.963-3.944-5.127-5.131l-23.625-12.916
		c-8.946-4.894-8.946-17.75,0-22.644l23.625-12.916c2.163-1.187,3.944-2.968,5.127-5.131l12.92-23.62
		C-3221.111,380.629-3208.26,380.629-3203.365,389.579"/>
	<path style="fill:#1170F3;" d="M-2761.184,790.379l-11.72,6.408c-2.163,1.187-3.944,2.963-5.127,5.131l-6.413,11.72
		c-4.894,8.946-17.746,8.946-22.64,0l-6.408-11.72c-1.187-2.168-2.963-3.944-5.131-5.131l-11.72-6.408
		c-8.946-4.894-8.946-17.745,0-22.64l11.72-6.408c2.168-1.187,3.944-2.968,5.131-5.131l6.408-11.72c4.894-8.95,17.746-8.95,22.64,0
		l6.413,11.72c1.183,2.163,2.963,3.944,5.127,5.131l11.72,6.408C-2752.234,772.633-2752.234,785.484-2761.184,790.379"/>
</g>
<g>
	<g>
		<path style="fill:#1170F3;" d="M-1472.969,642.121c6.751,23.075-14.664,44.435-37.74,37.684l-187.48-54.894
			c-8.245-2.379-17.099-1.218-24.403,3.265l-233.354,143.156c-30.712,18.814-62.862-21.969-37.408-47.423l294.833-294.778
			c23.241-23.297-1.937-61.811-32.593-49.803l-128.547,50.301c-16.601,6.474-35.194-2.656-40.23-19.755l-49.526-168.721
			c-5.866-20.143,9.684-39.013,29.052-39.013c2.822,0,5.755,0.387,8.688,1.273l192.018,56.333c5.589,1.605,11.51,1.605,17.099,0
			l191.852-56.167c23.075-6.751,44.49,14.664,37.74,37.684l-56.167,191.907c-1.66,5.534-1.66,11.51,0,17.044L-1472.969,642.121z"/>
	</g>
	<g>
		<path style="fill:#1170F3;" d="M-1920.365,202.14c2.822,0,5.755,0.387,8.688,1.273l192.018,56.333
			c5.589,1.605,11.51,1.605,17.099,0l191.852-56.167c23.075-6.751,44.491,14.664,37.74,37.684l-56.167,191.907
			c-1.66,5.534-1.66,11.51,0,17.044l56.167,191.907c6.751,23.075-14.664,44.435-37.74,37.684l-187.48-54.894
			c-8.245-2.379-17.099-1.217-24.403,3.265l-233.354,143.156c-30.712,18.814-62.862-21.969-37.408-47.423l294.833-294.778
			c23.241-23.297-1.937-61.811-32.593-49.803l-128.547,50.301c-16.601,6.474-35.194-2.656-40.23-19.755l-49.526-168.721
			C-1955.282,221.009-1939.733,202.14-1920.365,202.14z"/>
	</g>
	<g>
		<path style="fill:#1170F3;" d="M-1838.467,506.601L-1985.44,653.52c-12.728,12.783-33.147-3.32-23.684-18.704l68.451-111.448
			c3.375-5.479,8.356-9.739,14.332-12.174l71.329-29.384c2.048-0.886,4.095-1.273,6.032-1.273
			C-1836.585,480.538-1828.285,496.419-1838.467,506.601z"/>
	</g>
	<path style="fill:#1170F3;" d="M-1848.981,480.538c-1.937,0-3.984,0.387-6.032,1.273l-71.329,29.384
		c-5.976,2.435-10.957,6.696-14.332,12.174l-68.451,111.448c-9.463,15.384,10.957,31.487,23.684,18.704l146.974-146.919
		C-1828.285,496.419-1836.585,480.538-1848.981,480.538"/>
	<path style="fill:#1170F3;" d="M-2109.578,389.579l12.92,23.62c1.183,2.164,2.963,3.944,5.127,5.131l23.621,12.916
		c8.95,4.894,8.95,17.75,0,22.644l-23.621,12.916c-2.163,1.187-3.944,2.963-5.127,5.131l-12.92,23.62
		c-4.894,8.95-17.746,8.95-22.64,0l-12.92-23.62c-1.183-2.168-2.963-3.944-5.127-5.131l-23.625-12.916
		c-8.946-4.894-8.946-17.75,0-22.644l23.625-12.916c2.163-1.187,3.944-2.968,5.127-5.131l12.92-23.62
		C-2127.324,380.629-2114.472,380.629-2109.578,389.579"/>
	<path style="fill:#1170F3;" d="M-1667.397,790.379l-11.72,6.408c-2.163,1.187-3.944,2.963-5.127,5.131l-6.412,11.72
		c-4.894,8.946-17.746,8.946-22.64,0l-6.408-11.72c-1.187-2.168-2.963-3.944-5.131-5.131l-11.72-6.408
		c-8.946-4.894-8.946-17.745,0-22.64l11.72-6.408c2.168-1.187,3.944-2.968,5.131-5.131l6.408-11.72c4.894-8.95,17.746-8.95,22.64,0
		l6.412,11.72c1.183,2.163,2.963,3.944,5.127,5.131l11.72,6.408C-1658.447,772.633-1658.447,785.484-1667.397,790.379"/>
</g>
<g>
	<g>
		<path style="fill:#B95FDE;" d="M-302.586,642.121c6.751,23.075-14.664,44.435-37.74,37.684l-187.48-54.894
			c-8.245-2.379-17.099-1.218-24.403,3.265l-233.355,143.156c-30.712,18.814-62.862-21.969-37.408-47.423l294.833-294.778
			c23.241-23.297-1.937-61.811-32.593-49.803l-128.547,50.301c-16.601,6.474-35.194-2.656-40.23-19.755l-49.526-168.721
			c-5.866-20.143,9.684-39.013,29.052-39.013c2.822,0,5.755,0.387,8.688,1.273l192.018,56.333c5.589,1.605,11.51,1.605,17.099,0
			l191.852-56.167c23.075-6.751,44.49,14.664,37.74,37.684l-56.167,191.907c-1.66,5.534-1.66,11.51,0,17.044L-302.586,642.121z"/>
	</g>
	<g>
		<path style="fill:#B95FDE;" d="M-749.982,202.14c2.822,0,5.755,0.387,8.688,1.273l192.018,56.333
			c5.589,1.605,11.51,1.605,17.099,0l191.852-56.167c23.075-6.751,44.491,14.664,37.74,37.684l-56.167,191.907
			c-1.66,5.534-1.66,11.51,0,17.044l56.167,191.907c6.751,23.075-14.664,44.435-37.74,37.684l-187.48-54.894
			c-8.245-2.379-17.099-1.217-24.403,3.265l-233.354,143.156c-30.712,18.814-62.862-21.969-37.408-47.423l294.833-294.778
			c23.241-23.297-1.937-61.811-32.593-49.803l-128.547,50.301c-16.601,6.474-35.194-2.656-40.23-19.755l-49.526-168.721
			C-784.899,221.009-769.35,202.14-749.982,202.14z"/>
	</g>
	<g>
		<path style="fill:#B95FDE;" d="M-668.084,506.601L-815.057,653.52c-12.728,12.783-33.147-3.32-23.684-18.704l68.451-111.448
			c3.375-5.479,8.356-9.739,14.332-12.174l71.329-29.384c2.048-0.886,4.095-1.273,6.032-1.273
			C-666.202,480.538-657.902,496.419-668.084,506.601z"/>
	</g>
	<path style="fill:#B95FDE;" d="M-678.598,480.538c-1.937,0-3.984,0.387-6.032,1.273l-71.329,29.384
		c-5.976,2.435-10.957,6.696-14.332,12.174l-68.451,111.448c-9.463,15.384,10.957,31.487,23.684,18.704l146.974-146.919
		C-657.902,496.419-666.202,480.538-678.598,480.538"/>
	<path style="fill:#B95FDE;" d="M-939.195,389.579l12.92,23.62c1.183,2.164,2.963,3.944,5.127,5.131l23.62,12.916
		c8.95,4.894,8.95,17.75,0,22.644l-23.62,12.916c-2.163,1.187-3.944,2.963-5.127,5.131l-12.92,23.62
		c-4.894,8.95-17.746,8.95-22.64,0l-12.92-23.62c-1.183-2.168-2.963-3.944-5.127-5.131l-23.625-12.916
		c-8.946-4.894-8.946-17.75,0-22.644l23.625-12.916c2.163-1.187,3.944-2.968,5.127-5.131l12.92-23.62
		C-956.941,380.629-944.09,380.629-939.195,389.579"/>
	<path style="fill:#B95FDE;" d="M-497.014,790.379l-11.72,6.408c-2.163,1.187-3.944,2.963-5.127,5.131l-6.412,11.72
		c-4.894,8.946-17.746,8.946-22.64,0l-6.408-11.72c-1.187-2.168-2.963-3.944-5.131-5.131l-11.72-6.408
		c-8.946-4.894-8.946-17.745,0-22.64l11.72-6.408c2.168-1.187,3.944-2.968,5.131-5.131l6.408-11.72c4.894-8.95,17.746-8.95,22.64,0
		l6.412,11.72c1.183,2.163,2.963,3.944,5.127,5.131l11.72,6.408C-488.064,772.633-488.064,785.484-497.014,790.379"/>
</g>
<g>
	<g>
		<path style="fill:#FFFFFF;" d="M812.648,642.121c6.751,23.075-14.664,44.435-37.74,37.684l-187.48-54.894
			c-8.245-2.379-17.099-1.218-24.403,3.265L329.671,771.332c-30.712,18.814-62.862-21.969-37.408-47.423L587.096,429.13
			c23.241-23.297-1.937-61.811-32.593-49.803l-128.547,50.301c-16.601,6.474-35.194-2.656-40.23-19.755L336.2,241.152
			c-5.866-20.143,9.684-39.013,29.052-39.013c2.822,0,5.755,0.387,8.688,1.273l192.018,56.333c5.589,1.605,11.51,1.605,17.099,0
			l191.852-56.167c23.075-6.751,44.49,14.664,37.74,37.684L756.482,433.17c-1.66,5.534-1.66,11.51,0,17.044L812.648,642.121z"/>
	</g>
	<g>
		<path style="fill:#FFFFFF;" d="M365.252,202.14c2.822,0,5.755,0.387,8.688,1.273l192.018,56.333c5.589,1.605,11.51,1.605,17.099,0
			l191.852-56.167c23.075-6.751,44.491,14.664,37.74,37.684L756.482,433.17c-1.66,5.534-1.66,11.51,0,17.044l56.167,191.907
			c6.751,23.075-14.664,44.435-37.74,37.684l-187.48-54.894c-8.245-2.379-17.099-1.217-24.403,3.265L329.671,771.332
			c-30.712,18.814-62.862-21.969-37.408-47.423L587.096,429.13c23.241-23.297-1.937-61.811-32.593-49.803l-128.547,50.301
			c-16.601,6.474-35.194-2.656-40.23-19.755l-49.526-168.721C330.335,221.009,345.884,202.14,365.252,202.14z"/>
	</g>
	<g>
		<path style="fill:#FFFFFF;" d="M447.15,506.601L300.177,653.52c-12.728,12.783-33.147-3.32-23.684-18.704l68.451-111.448
			c3.375-5.479,8.356-9.739,14.332-12.174l71.329-29.384c2.048-0.886,4.095-1.273,6.032-1.273
			C449.032,480.538,457.332,496.419,447.15,506.601z"/>
	</g>
	<path style="fill:#FFFFFF;" d="M436.636,480.538c-1.937,0-3.984,0.387-6.032,1.273l-71.329,29.384
		c-5.976,2.435-10.957,6.696-14.332,12.174l-68.451,111.448c-9.463,15.384,10.957,31.487,23.684,18.704L447.15,506.601
		C457.332,496.419,449.032,480.538,436.636,480.538"/>
	<path style="fill:#FFFFFF;" d="M176.039,389.579l12.92,23.62c1.183,2.164,2.963,3.944,5.127,5.131l23.62,12.916
		c8.95,4.894,8.95,17.75,0,22.644l-23.62,12.916c-2.163,1.187-3.944,2.963-5.127,5.131l-12.92,23.62
		c-4.894,8.95-17.746,8.95-22.64,0l-12.92-23.62c-1.183-2.168-2.963-3.944-5.127-5.131l-23.625-12.916
		c-8.946-4.894-8.946-17.75,0-22.644l23.625-12.916c2.163-1.187,3.944-2.968,5.127-5.131l12.92-23.62
		C158.293,380.629,171.145,380.629,176.039,389.579"/>
	<path style="fill:#FFFFFF;" d="M618.22,790.379l-11.72,6.408c-2.163,1.187-3.944,2.963-5.127,5.131l-6.412,11.72
		c-4.894,8.946-17.746,8.946-22.64,0l-6.408-11.72c-1.187-2.168-2.963-3.944-5.131-5.131l-11.72-6.408
		c-8.946-4.894-8.946-17.745,0-22.64l11.72-6.408c2.168-1.187,3.944-2.968,5.131-5.131l6.408-11.72c4.894-8.95,17.746-8.95,22.64,0
		l6.412,11.72c1.183,2.163,2.963,3.944,5.127,5.131l11.72,6.408C627.17,772.633,627.17,785.484,618.22,790.379"/>
</g>
<g>
	<path d="M1956.989,642.121c6.751,23.075-14.664,44.435-37.74,37.684l-187.48-54.894c-8.245-2.379-17.099-1.218-24.403,3.265
		l-233.355,143.156c-30.712,18.814-62.862-21.969-37.408-47.423l294.833-294.778c23.241-23.297-1.937-61.811-32.593-49.803
		l-128.547,50.301c-16.601,6.474-35.194-2.656-40.23-19.755l-49.526-168.721c-5.866-20.143,9.684-39.013,29.052-39.013
		c2.822,0,5.755,0.387,8.688,1.273l192.018,56.333c5.589,1.605,11.51,1.605,17.099,0l191.852-56.167
		c23.075-6.751,44.49,14.664,37.74,37.684l-56.167,191.907c-1.66,5.534-1.66,11.51,0,17.044L1956.989,642.121z"/>
	<path d="M1509.593,202.14c2.822,0,5.755,0.387,8.688,1.273l192.018,56.333c5.589,1.605,11.51,1.605,17.099,0l191.852-56.167
		c23.075-6.751,44.491,14.664,37.74,37.684l-56.167,191.907c-1.66,5.534-1.66,11.51,0,17.044l56.167,191.907
		c6.751,23.075-14.664,44.435-37.74,37.684l-187.48-54.894c-8.245-2.379-17.099-1.217-24.403,3.265l-233.354,143.156
		c-30.712,18.814-62.862-21.969-37.407-47.423l294.833-294.778c23.241-23.297-1.937-61.811-32.593-49.803l-128.547,50.301
		c-16.601,6.474-35.194-2.656-40.23-19.755l-49.526-168.721C1474.675,221.009,1490.225,202.14,1509.593,202.14z"/>
	<path d="M1591.491,506.601L1444.517,653.52c-12.728,12.783-33.147-3.32-23.684-18.704l68.451-111.448
		c3.375-5.479,8.356-9.739,14.332-12.174l71.329-29.384c2.048-0.886,4.095-1.273,6.032-1.273
		C1593.372,480.538,1601.673,496.419,1591.491,506.601z"/>
	<path d="M1580.977,480.538c-1.937,0-3.984,0.387-6.032,1.273l-71.329,29.384c-5.976,2.435-10.957,6.696-14.332,12.174
		l-68.451,111.448c-9.463,15.384,10.957,31.487,23.684,18.704l146.974-146.919C1601.673,496.419,1593.372,480.538,1580.977,480.538"
		/>
	<path d="M1320.379,389.579l12.92,23.62c1.183,2.164,2.963,3.944,5.127,5.131l23.62,12.916c8.95,4.894,8.95,17.75,0,22.644
		l-23.62,12.916c-2.163,1.187-3.944,2.963-5.127,5.131l-12.92,23.62c-4.894,8.95-17.746,8.95-22.64,0l-12.92-23.62
		c-1.183-2.168-2.963-3.944-5.127-5.131l-23.625-12.916c-8.946-4.894-8.946-17.75,0-22.644l23.625-12.916
		c2.163-1.187,3.944-2.968,5.127-5.131l12.92-23.62C1302.634,380.629,1315.485,380.629,1320.379,389.579"/>
	<path d="M1762.561,790.379l-11.72,6.408c-2.163,1.187-3.944,2.963-5.127,5.131l-6.412,11.72c-4.894,8.946-17.746,8.946-22.64,0
		l-6.408-11.72c-1.187-2.168-2.963-3.944-5.131-5.131l-11.72-6.408c-8.946-4.894-8.946-17.745,0-22.64l11.72-6.408
		c2.168-1.187,3.944-2.968,5.131-5.131l6.408-11.72c4.894-8.95,17.746-8.95,22.64,0l6.412,11.72
		c1.183,2.163,2.964,3.944,5.127,5.131l11.72,6.408C1771.511,772.633,1771.511,785.484,1762.561,790.379"/>
</g>
</svg>
