<?xml version="1.0" encoding="iso-8859-1"?>
<!-- Generator: Adobe Illustrator 25.4.1, SVG Export Plug-In . SVG Version: 6.00 Build 0)  -->
<svg version="1.1" id="Calque_1" xmlns="http://www.w3.org/2000/svg" xmlns:xlink="http://www.w3.org/1999/xlink" x="0px" y="0px"
	 viewBox="0 0 1000 1000" style="enable-background:new 0 0 1000 1000;" xml:space="preserve">
<g>
	<g>
		<g>
			<path d="M5830.731-492.358l-34.619-7.31c-20.321-4.368-30.481-13.241-30.481-26.665c0-8.781,3.448-15.677,10.39-20.78
				c6.942-5.057,16.275-7.586,28.044-7.586c12.229,0,22.251,2.85,29.976,8.643c7.724,5.747,12.734,14.206,15.079,25.286h35.998
				c-1.839-19.631-9.976-35.354-24.412-47.124s-32.734-17.654-54.894-17.654c-22.39,0-40.549,5.701-54.388,17.148
				s-20.781,26.389-20.781,44.871c0,29.056,18.712,47.537,56.135,55.399l34.251,7.632c21.011,4.368,31.539,14.16,31.539,29.424
				c0,9.701-3.632,17.194-10.896,22.528c-7.31,5.287-17.608,7.953-31.033,7.953c-14.758,0-26.527-3.172-35.308-9.517
				c-8.781-6.344-13.976-15.539-15.585-27.539h-36.733c1.425,20.781,9.884,37.331,25.47,49.698s35.86,18.528,60.778,18.528
				c24.274,0,43.308-5.839,57.146-17.516c13.884-11.631,20.78-27.401,20.78-47.262
				C5887.188-464.911,5868.384-484.312,5830.731-492.358z"/>
		</g>
		<g>
			<path d="M5982.079-403.351v-148.267h49.192v-29.791h-49.514v-62.341h-0.184l-36.55,10.712v51.629h-35.676v29.791h35.354v144.084
				c0,11.31,2.942,19.815,8.827,25.47c5.884,5.655,14.252,8.459,25.102,8.459h57.514v-29.746H5982.079z"/>
		</g>
		<g>
			<path d="M6249.833-487.531c0-20.091-3.954-37.469-11.815-52.135c-7.816-14.666-18.528-25.976-31.998-33.929
				c-13.517-7.953-28.918-11.953-46.25-11.953c-18.482,0-34.94,4.413-49.376,13.149c-14.39,8.781-25.746,21.194-33.929,37.239
				c-8.184,16.045-12.275,35.032-12.275,56.962c0,22.206,4.184,41.423,12.643,57.698c8.413,16.275,19.999,28.872,34.803,37.745
				c14.757,8.873,31.492,13.332,50.204,13.332c21.93,0,40.872-5.931,56.824-17.838c15.907-11.907,26.067-28.458,30.481-49.698
				h-38.112c-2.989,10.85-8.919,19.401-17.654,25.608c-8.781,6.253-19.401,9.379-31.86,9.379c-17.333,0-31.584-6.207-42.802-18.528
				c-11.171-12.367-17.378-29.148-18.528-50.388h149.647V-487.531z M6101.934-499.3c2.989-17.102,9.609-30.343,19.907-39.814
				c10.252-9.471,22.803-14.206,37.561-14.206c14.804,0,27.079,4.735,36.917,14.206c9.792,9.471,15.493,22.711,17.148,39.814
				H6101.934z"/>
		</g>
		<g>
			<path d="M6302.98-653.82l-0.874,0.276v279.938h37.423v-290.926L6302.98-653.82z"/>
		</g>
		<g>
			<path d="M6405.457-653.82l-0.828,0.23v279.984h37.377v-290.926L6405.457-653.82z"/>
		</g>
		<g>
			<path d="M6638.915-564.767c-14.436-13.838-34.435-20.78-60.088-20.78c-22.62,0-41.561,5.839-56.779,17.47
				c-15.263,11.677-24.596,27.447-28.09,47.307h38.112c2.529-10.39,7.816-18.436,15.769-24.091
				c7.954-5.655,18.068-8.459,30.297-8.459c14.758,0,26.251,4.138,34.481,12.459c8.184,8.321,12.275,20.183,12.275,35.676v10.39
				h-60.594c-23.584,0-41.745,5.471-54.571,16.459c-12.827,10.942-19.217,26.251-19.217,45.883c0,18.482,6.391,33.515,19.217,45.193
				c12.827,11.678,29.515,17.47,50.066,17.47c14.298,0,27.217-3.494,38.756-10.528c11.586-7.08,19.999-16.827,25.286-29.286h1.425
				v35.998h35.308v-132.636C6660.568-531.39,6653.351-550.929,6638.915-564.767z M6624.892-458.107
				c0,10.896-2.528,20.642-7.631,29.286c-5.058,8.643-11.954,15.447-20.597,20.413c-8.643,4.965-18.436,7.448-29.286,7.448
				c-12.689,0-22.849-2.988-30.435-9.011c-7.632-5.977-11.448-14.068-11.448-24.229c0-10.16,3.494-18.068,10.574-23.723
				c7.034-5.655,17.24-8.459,30.619-8.459h58.203V-458.107z"/>
		</g>
		<g>
			<path d="M6824.375-583.111c-15.217,0-28.182,3.908-38.802,11.769c-10.62,7.862-18.114,18.344-22.481,31.493h-1.379v-41.561
				h-35.676v207.804h37.377v-108.362c0-20.781,5.103-37.285,15.264-49.56c10.16-12.229,24.688-18.344,43.629-18.344h17.333v-33.239
				H6824.375z"/>
		</g>
	</g>
	<g>
		<g>
			<polygon points="5595.766,-405.667 5471.66,-442.007 5244.63,-302.745 5528.054,-586.169 5383.893,-529.774 5347.46,-653.972 
				5471.66,-617.54 5595.766,-653.881 5559.426,-529.774 			"/>
			<polygon points="5361.91,-493.937 5435.679,-524.346 5292.888,-381.556 			"/>
		</g>
		<g>
			<polygon points="5263.806,-528.636 5276.547,-505.339 5299.845,-492.597 5276.547,-479.855 5263.806,-456.557 5251.063,-479.855 
				5227.766,-492.597 5251.063,-505.339 			"/>
		</g>
		<g>
			<polygon points="5497.426,-363.295 5479.949,-353.737 5470.391,-336.26 5460.832,-353.737 5443.355,-363.295 5460.832,-372.854 
				5470.391,-390.331 5479.949,-372.854 			"/>
		</g>
	</g>
</g>
<g>
	<g>
		<g>
			<path style="fill:#FFFFFF;" d="M3808.603-492.358l-34.618-7.31c-20.321-4.368-30.481-13.241-30.481-26.665
				c0-8.781,3.448-15.677,10.39-20.78c6.942-5.057,16.275-7.586,28.044-7.586c12.229,0,22.252,2.85,29.975,8.643
				c7.724,5.747,12.735,14.206,15.08,25.286h35.998c-1.839-19.631-9.976-35.354-24.412-47.124s-32.734-17.654-54.893-17.654
				c-22.389,0-40.55,5.701-54.388,17.148c-13.838,11.448-20.781,26.389-20.781,44.871c0,29.056,18.711,47.537,56.135,55.399
				l34.251,7.632c21.01,4.368,31.538,14.16,31.538,29.424c0,9.701-3.632,17.194-10.896,22.528
				c-7.31,5.287-17.608,7.953-31.033,7.953c-14.758,0-26.527-3.172-35.308-9.517c-8.781-6.344-13.976-15.539-15.585-27.539h-36.733
				c1.425,20.781,9.885,37.331,25.469,49.698c15.585,12.367,35.86,18.528,60.778,18.528c24.274,0,43.308-5.839,57.146-17.516
				c13.884-11.631,20.781-27.401,20.781-47.262C3865.06-464.911,3846.256-484.312,3808.603-492.358z"/>
		</g>
		<g>
			<path style="fill:#FFFFFF;" d="M3959.951-403.351v-148.267h49.193v-29.791h-49.514v-62.341h-0.184l-36.55,10.712v51.629h-35.676
				v29.791h35.354v144.084c0,11.31,2.942,19.815,8.827,25.47c5.885,5.655,14.252,8.459,25.102,8.459h57.514v-29.746H3959.951z"/>
		</g>
		<g>
			<path style="fill:#FFFFFF;" d="M4227.706-487.531c0-20.091-3.954-37.469-11.815-52.135
				c-7.816-14.666-18.528-25.976-31.999-33.929c-13.517-7.953-28.918-11.953-46.25-11.953c-18.482,0-34.94,4.413-49.377,13.149
				c-14.39,8.781-25.746,21.194-33.929,37.239c-8.184,16.045-12.275,35.032-12.275,56.962c0,22.206,4.184,41.423,12.643,57.698
				c8.413,16.275,19.999,28.872,34.802,37.745c14.758,8.873,31.492,13.332,50.204,13.332c21.93,0,40.871-5.931,56.824-17.838
				c15.907-11.907,26.067-28.458,30.481-49.698h-38.113c-2.988,10.85-8.919,19.401-17.654,25.608
				c-8.781,6.253-19.401,9.379-31.86,9.379c-17.333,0-31.584-6.207-42.802-18.528c-11.172-12.367-17.378-29.148-18.528-50.388
				h149.647V-487.531z M4079.806-499.3c2.988-17.102,9.609-30.343,19.907-39.814c10.252-9.471,22.804-14.206,37.561-14.206
				c14.804,0,27.079,4.735,36.917,14.206c9.793,9.471,15.494,22.711,17.148,39.814H4079.806z"/>
		</g>
		<g>
			<path style="fill:#FFFFFF;" d="M4280.852-653.82l-0.874,0.276v279.938h37.423v-290.926L4280.852-653.82z"/>
		</g>
		<g>
			<path style="fill:#FFFFFF;" d="M4383.329-653.82l-0.828,0.23v279.984h37.377v-290.926L4383.329-653.82z"/>
		</g>
		<g>
			<path style="fill:#FFFFFF;" d="M4616.787-564.767c-14.436-13.838-34.435-20.78-60.089-20.78c-22.62,0-41.561,5.839-56.778,17.47
				c-15.264,11.677-24.596,27.447-28.09,47.307h38.113c2.529-10.39,7.815-18.436,15.769-24.091s18.068-8.459,30.297-8.459
				c14.758,0,26.251,4.138,34.48,12.459c8.184,8.321,12.275,20.183,12.275,35.676v10.39h-60.594
				c-23.585,0-41.745,5.471-54.572,16.459c-12.827,10.942-19.217,26.251-19.217,45.883c0,18.482,6.391,33.515,19.217,45.193
				c12.827,11.678,29.516,17.47,50.066,17.47c14.298,0,27.217-3.494,38.756-10.528c11.585-7.08,19.999-16.827,25.286-29.286h1.425
				v35.998h35.309v-132.636C4638.441-531.39,4631.223-550.929,4616.787-564.767z M4602.765-458.107
				c0,10.896-2.529,20.642-7.632,29.286c-5.057,8.643-11.954,15.447-20.596,20.413c-8.644,4.965-18.436,7.448-29.286,7.448
				c-12.688,0-22.849-2.988-30.435-9.011c-7.631-5.977-11.447-14.068-11.447-24.229c0-10.16,3.494-18.068,10.574-23.723
				c7.034-5.655,17.241-8.459,30.619-8.459h58.204V-458.107z"/>
		</g>
		<g>
			<path style="fill:#FFFFFF;" d="M4802.248-583.111c-15.217,0-28.183,3.908-38.803,11.769
				c-10.62,7.862-18.114,18.344-22.481,31.493h-1.379v-41.561h-35.676v207.804h37.377v-108.362c0-20.781,5.103-37.285,15.264-49.56
				c10.161-12.229,24.688-18.344,43.629-18.344h17.333v-33.239H4802.248z"/>
		</g>
	</g>
	<g>
		<g>
			<polygon style="fill:#FFFFFF;" points="3573.638,-405.667 3449.532,-442.007 3222.502,-302.745 3505.927,-586.169 
				3361.765,-529.774 3325.333,-653.972 3449.532,-617.54 3573.638,-653.881 3537.299,-529.774 			"/>
			<polygon style="fill:#FFFFFF;" points="3339.782,-493.937 3413.551,-524.346 3270.76,-381.556 			"/>
		</g>
		<g>
			<polygon style="fill:#FFFFFF;" points="3241.678,-528.636 3254.42,-505.339 3277.718,-492.597 3254.42,-479.855 
				3241.678,-456.557 3228.936,-479.855 3205.638,-492.597 3228.936,-505.339 			"/>
		</g>
		<g>
			<polygon style="fill:#FFFFFF;" points="3475.298,-363.295 3457.821,-353.737 3448.263,-336.26 3438.705,-353.737 
				3421.228,-363.295 3438.705,-372.854 3448.263,-390.331 3457.821,-372.854 			"/>
		</g>
	</g>
</g>
<g>
	<g>
		<g>
			<path style="fill:#FFFFFF;" d="M1712.944-492.358l-34.619-7.31c-20.321-4.368-30.481-13.241-30.481-26.665
				c0-8.781,3.448-15.677,10.39-20.78c6.942-5.057,16.275-7.586,28.044-7.586c12.229,0,22.252,2.85,29.975,8.643
				c7.724,5.747,12.735,14.206,15.079,25.286h35.998c-1.839-19.631-9.976-35.354-24.412-47.124
				c-14.436-11.769-32.734-17.654-54.893-17.654c-22.39,0-40.549,5.701-54.388,17.148c-13.838,11.448-20.781,26.389-20.781,44.871
				c0,29.056,18.712,47.537,56.135,55.399l34.251,7.632c21.01,4.368,31.538,14.16,31.538,29.424c0,9.701-3.632,17.194-10.896,22.528
				c-7.31,5.287-17.608,7.953-31.033,7.953c-14.758,0-26.527-3.172-35.308-9.517c-8.781-6.344-13.976-15.539-15.585-27.539h-36.734
				c1.425,20.781,9.885,37.331,25.47,49.698c15.585,12.367,35.86,18.528,60.778,18.528c24.274,0,43.308-5.839,57.146-17.516
				c13.884-11.631,20.781-27.401,20.781-47.262C1769.4-464.911,1750.597-484.312,1712.944-492.358z"/>
		</g>
		<g>
			<path style="fill:#FFFFFF;" d="M1864.291-403.351v-148.267h49.193v-29.791h-49.514v-62.341h-0.184l-36.55,10.712v51.629h-35.676
				v29.791h35.354v144.084c0,11.31,2.942,19.815,8.827,25.47c5.885,5.655,14.252,8.459,25.102,8.459h57.514v-29.746H1864.291z"/>
		</g>
		<g>
			<path style="fill:#FFFFFF;" d="M2132.046-487.531c0-20.091-3.954-37.469-11.815-52.135
				c-7.816-14.666-18.528-25.976-31.998-33.929c-13.517-7.953-28.918-11.953-46.25-11.953c-18.482,0-34.94,4.413-49.376,13.149
				c-14.39,8.781-25.746,21.194-33.929,37.239c-8.183,16.045-12.275,35.032-12.275,56.962c0,22.206,4.184,41.423,12.643,57.698
				c8.413,16.275,19.999,28.872,34.803,37.745c14.758,8.873,31.492,13.332,50.204,13.332c21.93,0,40.871-5.931,56.824-17.838
				c15.907-11.907,26.067-28.458,30.481-49.698h-38.113c-2.989,10.85-8.919,19.401-17.654,25.608
				c-8.781,6.253-19.401,9.379-31.86,9.379c-17.332,0-31.584-6.207-42.802-18.528c-11.172-12.367-17.378-29.148-18.528-50.388
				h149.647V-487.531z M1984.146-499.3c2.989-17.102,9.609-30.343,19.907-39.814c10.252-9.471,22.803-14.206,37.561-14.206
				c14.804,0,27.079,4.735,36.917,14.206c9.792,9.471,15.493,22.711,17.148,39.814H1984.146z"/>
		</g>
		<g>
			<path style="fill:#FFFFFF;" d="M2185.193-653.82l-0.874,0.276v279.938h37.423v-290.926L2185.193-653.82z"/>
		</g>
		<g>
			<path style="fill:#FFFFFF;" d="M2287.669-653.82l-0.828,0.23v279.984h37.377v-290.926L2287.669-653.82z"/>
		</g>
		<g>
			<path style="fill:#FFFFFF;" d="M2521.127-564.767c-14.436-13.838-34.435-20.78-60.089-20.78c-22.62,0-41.561,5.839-56.779,17.47
				c-15.263,11.677-24.596,27.447-28.09,47.307h38.113c2.529-10.39,7.816-18.436,15.769-24.091
				c7.954-5.655,18.068-8.459,30.297-8.459c14.758,0,26.251,4.138,34.481,12.459c8.184,8.321,12.275,20.183,12.275,35.676v10.39
				h-60.594c-23.585,0-41.745,5.471-54.572,16.459c-12.827,10.942-19.217,26.251-19.217,45.883c0,18.482,6.391,33.515,19.217,45.193
				c12.827,11.678,29.515,17.47,50.066,17.47c14.298,0,27.217-3.494,38.756-10.528c11.586-7.08,19.999-16.827,25.286-29.286h1.425
				v35.998h35.308v-132.636C2542.781-531.39,2535.563-550.929,2521.127-564.767z M2507.105-458.107
				c0,10.896-2.529,20.642-7.632,29.286c-5.057,8.643-11.954,15.447-20.596,20.413c-8.643,4.965-18.436,7.448-29.286,7.448
				c-12.689,0-22.849-2.988-30.435-9.011c-7.632-5.977-11.448-14.068-11.448-24.229c0-10.16,3.494-18.068,10.574-23.723
				c7.034-5.655,17.24-8.459,30.619-8.459h58.203V-458.107z"/>
		</g>
		<g>
			<path style="fill:#FFFFFF;" d="M2706.588-583.111c-15.217,0-28.182,3.908-38.802,11.769
				c-10.62,7.862-18.114,18.344-22.481,31.493h-1.379v-41.561h-35.676v207.804h37.377v-108.362c0-20.781,5.103-37.285,15.264-49.56
				c10.16-12.229,24.688-18.344,43.629-18.344h17.333v-33.239H2706.588z"/>
		</g>
	</g>
	<g>
		<g>
			<linearGradient id="SVGID_1_" gradientUnits="userSpaceOnUse" x1="1213.4542" y1="-372.9846" x2="1403.6121" y2="-585.4448">
				<stop  offset="0" style="stop-color:#1170F3"/>
				<stop  offset="1" style="stop-color:#B95FDE"/>
			</linearGradient>
			<polygon style="fill:url(#SVGID_1_);" points="1477.979,-405.667 1353.872,-442.007 1126.843,-302.745 1410.267,-586.169 
				1266.106,-529.774 1229.673,-653.972 1353.872,-617.54 1477.979,-653.881 1441.639,-529.774 			"/>
			
				<linearGradient id="SVGID_00000051363752030816970150000015358611644534634929_" gradientUnits="userSpaceOnUse" x1="1183.2993" y1="-399.9741" x2="1373.4572" y2="-612.4344">
				<stop  offset="0" style="stop-color:#1170F3"/>
				<stop  offset="1" style="stop-color:#B95FDE"/>
			</linearGradient>
			<polygon style="fill:url(#SVGID_00000051363752030816970150000015358611644534634929_);" points="1244.123,-493.937 
				1317.891,-524.346 1175.101,-381.556 			"/>
		</g>
		<g>
			<polygon style="fill:#1170F3;" points="1146.018,-528.636 1158.76,-505.339 1182.058,-492.597 1158.76,-479.855 
				1146.018,-456.557 1133.276,-479.855 1109.979,-492.597 1133.276,-505.339 			"/>
		</g>
		<g>
			<polygon style="fill:#1170F3;" points="1379.639,-363.295 1362.162,-353.737 1352.603,-336.26 1343.045,-353.737 
				1325.568,-363.295 1343.045,-372.854 1352.603,-390.331 1362.162,-372.854 			"/>
		</g>
	</g>
</g>
<g>
	<g>
		<g>
			<path style="fill:#1170F3;" d="M-336.758-492.358l-34.619-7.31c-20.321-4.368-30.481-13.241-30.481-26.665
				c0-8.781,3.448-15.677,10.39-20.78c6.942-5.057,16.275-7.586,28.044-7.586c12.229,0,22.252,2.85,29.975,8.643
				c7.724,5.747,12.735,14.206,15.079,25.286h35.998c-1.839-19.631-9.976-35.354-24.412-47.124
				c-14.436-11.769-32.734-17.654-54.893-17.654c-22.389,0-40.549,5.701-54.388,17.148c-13.838,11.448-20.78,26.389-20.78,44.871
				c0,29.056,18.712,47.537,56.135,55.399l34.251,7.632c21.01,4.368,31.538,14.16,31.538,29.424c0,9.701-3.632,17.194-10.896,22.528
				c-7.31,5.287-17.608,7.953-31.033,7.953c-14.758,0-26.527-3.172-35.308-9.517c-8.781-6.344-13.976-15.539-15.585-27.539h-36.733
				c1.425,20.781,9.885,37.331,25.47,49.698c15.585,12.367,35.86,18.528,60.778,18.528c24.274,0,43.308-5.839,57.146-17.516
				c13.884-11.631,20.78-27.401,20.78-47.262C-280.302-464.911-299.105-484.312-336.758-492.358z"/>
		</g>
		<g>
			<path style="fill:#1170F3;" d="M-185.411-403.351v-148.267h49.193v-29.791h-49.514v-62.341h-0.184l-36.55,10.712v51.629h-35.676
				v29.791h35.354v144.084c0,11.31,2.942,19.815,8.827,25.47c5.885,5.655,14.252,8.459,25.102,8.459h57.514v-29.746H-185.411z"/>
		</g>
		<g>
			<path style="fill:#1170F3;" d="M82.344-487.531c0-20.091-3.954-37.469-11.815-52.135c-7.816-14.666-18.528-25.976-31.998-33.929
				c-13.516-7.953-28.918-11.953-46.25-11.953c-18.482,0-34.94,4.413-49.376,13.149c-14.39,8.781-25.746,21.194-33.929,37.239
				c-8.184,16.045-12.275,35.032-12.275,56.962c0,22.206,4.184,41.423,12.643,57.698c8.413,16.275,19.999,28.872,34.803,37.745
				c14.758,8.873,31.492,13.332,50.204,13.332c21.93,0,40.871-5.931,56.824-17.838c15.907-11.907,26.067-28.458,30.481-49.698
				H43.542c-2.988,10.85-8.919,19.401-17.654,25.608c-8.781,6.253-19.401,9.379-31.86,9.379c-17.332,0-31.584-6.207-42.802-18.528
				c-11.172-12.367-17.378-29.148-18.528-50.388H82.344V-487.531z M-65.556-499.3c2.988-17.102,9.609-30.343,19.907-39.814
				c10.252-9.471,22.803-14.206,37.561-14.206c14.804,0,27.079,4.735,36.918,14.206c9.793,9.471,15.493,22.711,17.148,39.814
				H-65.556z"/>
		</g>
		<g>
			<path style="fill:#1170F3;" d="M135.49-653.82l-0.874,0.276v279.938h37.423v-290.926L135.49-653.82z"/>
		</g>
		<g>
			<path style="fill:#1170F3;" d="M237.967-653.82l-0.827,0.23v279.984h37.377v-290.926L237.967-653.82z"/>
		</g>
		<g>
			<path style="fill:#1170F3;" d="M471.425-564.767c-14.436-13.838-34.435-20.78-60.089-20.78c-22.62,0-41.561,5.839-56.779,17.47
				c-15.264,11.677-24.596,27.447-28.09,47.307h38.113c2.529-10.39,7.816-18.436,15.769-24.091
				c7.954-5.655,18.068-8.459,30.297-8.459c14.758,0,26.251,4.138,34.481,12.459c8.184,8.321,12.275,20.183,12.275,35.676v10.39
				h-60.594c-23.585,0-41.745,5.471-54.572,16.459c-12.827,10.942-19.217,26.251-19.217,45.883c0,18.482,6.391,33.515,19.217,45.193
				c12.827,11.678,29.515,17.47,50.066,17.47c14.298,0,27.217-3.494,38.756-10.528c11.586-7.08,19.999-16.827,25.286-29.286h1.425
				v35.998h35.308v-132.636C493.079-531.39,485.861-550.929,471.425-564.767z M457.403-458.107c0,10.896-2.529,20.642-7.632,29.286
				c-5.057,8.643-11.953,15.447-20.596,20.413c-8.643,4.965-18.436,7.448-29.286,7.448c-12.689,0-22.849-2.988-30.435-9.011
				c-7.632-5.977-11.448-14.068-11.448-24.229c0-10.16,3.494-18.068,10.574-23.723c7.034-5.655,17.24-8.459,30.619-8.459h58.203
				V-458.107z"/>
		</g>
		<g>
			<path style="fill:#1170F3;" d="M656.886-583.111c-15.217,0-28.182,3.908-38.802,11.769c-10.62,7.862-18.114,18.344-22.482,31.493
				h-1.379v-41.561h-35.676v207.804h37.377v-108.362c0-20.781,5.103-37.285,15.263-49.56c10.16-12.229,24.689-18.344,43.629-18.344
				h17.332v-33.239H656.886z"/>
		</g>
	</g>
	<g>
		<g>
			
				<linearGradient id="SVGID_00000050645147817209009130000012596164239545159083_" gradientUnits="userSpaceOnUse" x1="-836.2479" y1="-372.9846" x2="-646.09" y2="-585.4448">
				<stop  offset="0" style="stop-color:#1170F3"/>
				<stop  offset="1" style="stop-color:#B95FDE"/>
			</linearGradient>
			<polygon style="fill:url(#SVGID_00000050645147817209009130000012596164239545159083_);" points="-571.724,-405.667 
				-695.83,-442.007 -922.86,-302.745 -639.435,-586.169 -783.597,-529.774 -820.029,-653.972 -695.83,-617.54 -571.724,-653.881 
				-608.063,-529.774 			"/>
			
				<linearGradient id="SVGID_00000120559707318657236490000009049765754985879986_" gradientUnits="userSpaceOnUse" x1="-866.4028" y1="-399.9741" x2="-676.245" y2="-612.4344">
				<stop  offset="0" style="stop-color:#1170F3"/>
				<stop  offset="1" style="stop-color:#B95FDE"/>
			</linearGradient>
			<polygon style="fill:url(#SVGID_00000120559707318657236490000009049765754985879986_);" points="-805.579,-493.937 
				-731.811,-524.346 -874.601,-381.556 			"/>
		</g>
		<g>
			<polygon style="fill:#1170F3;" points="-903.684,-528.636 -890.942,-505.339 -867.644,-492.597 -890.942,-479.855 
				-903.684,-456.557 -916.426,-479.855 -939.723,-492.597 -916.426,-505.339 			"/>
		</g>
		<g>
			<polygon style="fill:#1170F3;" points="-670.064,-363.295 -687.54,-353.737 -697.099,-336.26 -706.657,-353.737 
				-724.134,-363.295 -706.657,-372.854 -697.099,-390.331 -687.54,-372.854 			"/>
		</g>
	</g>
</g>
<g>
	<g>
		<polygon points="4265.603,632.601 4039.213,566.311 3625.074,820.347 4142.086,303.336 3879.113,406.21 3812.654,179.653 
			4039.213,246.11 4265.603,179.82 4199.313,406.21 		"/>
		<polygon points="3839.012,471.583 3973.578,416.112 3713.106,676.584 		"/>
	</g>
	<polygon points="3660.054,408.285 3683.298,450.784 3725.796,474.027 3683.298,497.271 3660.054,539.769 3636.811,497.271 
		3594.312,474.027 3636.811,450.784 	"/>
	<polygon points="4086.215,709.893 4054.334,727.329 4036.898,759.21 4019.462,727.329 3987.582,709.893 4019.462,692.457 
		4036.898,660.577 4054.334,692.457 	"/>
</g>
<g>
	<g>
		<g>
			<polygon style="fill:#FFFFFF;" points="3121.262,632.601 2894.872,566.311 2480.734,820.347 2997.746,303.336 2734.772,406.21 
				2668.314,179.653 2894.873,246.11 3121.262,179.82 3054.973,406.21 			"/>
		</g>
		<g>
			<polygon style="fill:#FFFFFF;" points="2694.672,471.583 2829.238,416.112 2568.765,676.584 			"/>
		</g>
	</g>
	<g>
		<polygon style="fill:#FFFFFF;" points="2515.714,408.285 2538.957,450.784 2581.456,474.027 2538.957,497.271 2515.714,539.769 
			2492.47,497.271 2449.972,474.027 2492.47,450.784 		"/>
	</g>
	<g>
		<polygon style="fill:#FFFFFF;" points="2941.874,709.893 2909.994,727.329 2892.558,759.21 2875.122,727.329 2843.241,709.893 
			2875.122,692.457 2892.558,660.577 2909.994,692.457 		"/>
	</g>
</g>
<g>
	<g>
		<g>
			<polygon style="fill:#B95FDE;" points="2006.028,632.601 1779.638,566.311 1365.5,820.347 1882.511,303.336 1619.538,406.21 
				1553.08,179.653 1779.638,246.11 2006.028,179.82 1939.739,406.21 			"/>
		</g>
		<g>
			<polygon style="fill:#B95FDE;" points="1579.438,471.583 1714.004,416.112 1453.531,676.584 			"/>
		</g>
	</g>
	<g>
		<polygon style="fill:#B95FDE;" points="1400.48,408.285 1423.723,450.784 1466.222,474.027 1423.723,497.271 1400.48,539.769 
			1377.236,497.271 1334.738,474.027 1377.236,450.784 		"/>
	</g>
	<g>
		<polygon style="fill:#B95FDE;" points="1826.64,709.893 1794.76,727.329 1777.324,759.21 1759.888,727.329 1728.007,709.893 
			1759.888,692.457 1777.324,660.577 1794.76,692.457 		"/>
	</g>
</g>
<g>
	<g>
		<g>
			<polygon style="fill:#1170F3;" points="835.645,632.601 609.255,566.311 195.117,820.347 712.128,303.336 449.155,406.21 
				382.697,179.653 609.255,246.11 835.645,179.82 769.356,406.21 			"/>
		</g>
		<g>
			<polygon style="fill:#1170F3;" points="409.055,471.583 543.621,416.112 283.148,676.584 			"/>
		</g>
	</g>
	<g>
		<polygon style="fill:#1170F3;" points="230.097,408.285 253.34,450.784 295.839,474.027 253.34,497.271 230.097,539.769 
			206.853,497.271 164.355,474.027 206.853,450.784 		"/>
	</g>
	<g>
		<polygon style="fill:#1170F3;" points="656.257,709.893 624.377,727.329 606.941,759.21 589.505,727.329 557.624,709.893 
			589.505,692.457 606.941,660.577 624.377,692.457 		"/>
	</g>
</g>
<g>
	<g>
		
			<linearGradient id="SVGID_00000075131586549644109360000002071757429098698408_" gradientUnits="userSpaceOnUse" x1="-740.6765" y1="692.2189" x2="-393.7984" y2="304.6575">
			<stop  offset="0" style="stop-color:#1170F3"/>
			<stop  offset="1" style="stop-color:#B95FDE"/>
		</linearGradient>
		<polygon style="fill:url(#SVGID_00000075131586549644109360000002071757429098698408_);" points="-258.142,632.601 
			-484.532,566.311 -898.67,820.347 -381.659,303.336 -644.632,406.21 -711.09,179.653 -484.532,246.11 -258.142,179.82 
			-324.431,406.21 		"/>
		
			<linearGradient id="SVGID_00000088833581356156150050000015807439500009701809_" gradientUnits="userSpaceOnUse" x1="-795.684" y1="642.9857" x2="-448.8059" y2="255.4243">
			<stop  offset="0" style="stop-color:#1170F3"/>
			<stop  offset="1" style="stop-color:#B95FDE"/>
		</linearGradient>
		<polygon style="fill:url(#SVGID_00000088833581356156150050000015807439500009701809_);" points="-684.733,471.583 
			-550.166,416.112 -810.639,676.584 		"/>
	</g>
	<g>
		<polygon style="fill:#1170F3;" points="-863.69,408.285 -840.447,450.784 -797.948,474.027 -840.447,497.271 -863.69,539.769 
			-886.934,497.271 -929.432,474.027 -886.934,450.784 		"/>
	</g>
	<g>
		<polygon style="fill:#1170F3;" points="-437.53,709.893 -469.41,727.329 -486.847,759.21 -504.283,727.329 -536.163,709.893 
			-504.283,692.457 -486.847,660.577 -469.41,692.457 		"/>
	</g>
</g>
</svg>
